<mxfile host="app.diagrams.net" modified="2021-01-18T10:40:54.605Z" agent="5.0 (Windows NT 6.3; Win64; x64) AppleWebKit/537.36 (KHTML, like Gecko) Chrome/87.0.4280.141 Safari/537.36" etag="TbE-keVQH-RCTP2XD_wY" version="14.2.4" type="github">
  <diagram name="Page-1" id="2c0d36ab-eaac-3732-788b-9136903baeff">
    <mxGraphModel dx="8680" dy="4310" grid="1" gridSize="10" guides="1" tooltips="1" connect="1" arrows="1" fold="1" page="1" pageScale="1.5" pageWidth="827" pageHeight="1169" background="#ffffff" math="0" shadow="0">
      <root>
        <mxCell id="0" />
        <mxCell id="1" parent="0" />
        <mxCell id="2" value="Program powtórkowy&#xa;Praca dyplomowa" style="fillColor=#b1ddf0;fontStyle=1;fontFamily=Tahoma;fontSize=14;rounded=1;" parent="1" vertex="1">
          <mxGeometry x="930" y="185.5" width="190" height="80" as="geometry" />
        </mxCell>
        <mxCell id="13" value="1.&#xa; Prace &#xa;przygotowawcze" style="fillColor=#b1ddf0;fontStyle=1;fontFamily=Tahoma;fontSize=14;rounded=1;" parent="1" vertex="1">
          <mxGeometry x="107" y="335.5" width="190" height="80" as="geometry" />
        </mxCell>
        <mxCell id="17" value="1.2&#xa;Przegląd&#xa;technologii" style="fillColor=#b1ddf0;fontStyle=1;fontFamily=Tahoma;fontSize=11;rounded=1;" parent="1" vertex="1">
          <mxGeometry x="170" y="1670" width="130" height="60" as="geometry" />
        </mxCell>
        <mxCell id="18" value="1.1.2.1&#xa;Zalety" style="fillColor=#b1ddf0;fontStyle=1;fontFamily=Tahoma;fontSize=11;rounded=1;" parent="1" vertex="1">
          <mxGeometry x="260" y="650" width="130" height="60" as="geometry" />
        </mxCell>
        <mxCell id="59" value="" style="edgeStyle=elbowEdgeStyle;elbow=vertical;strokeWidth=2;fillColor=#b1ddf0;endArrow=none;endFill=0;rounded=0;entryX=0.5;entryY=0;entryDx=0;entryDy=0;" parent="1" source="2" target="5ByG_nBHXtcjosvwfeg_-128" edge="1">
          <mxGeometry x="347" y="225.5" width="100" height="100" as="geometry">
            <mxPoint x="861.9999999999999" y="275.5" as="sourcePoint" />
            <mxPoint x="657" y="335.5" as="targetPoint" />
          </mxGeometry>
        </mxCell>
        <mxCell id="61" value="" style="edgeStyle=elbowEdgeStyle;elbow=vertical;strokeWidth=2;fillColor=#b1ddf0;endArrow=none;endFill=0;rounded=0;" parent="1" source="2" target="13" edge="1">
          <mxGeometry x="-23" y="135.5" width="100" height="100" as="geometry">
            <mxPoint x="-23" y="235.5" as="sourcePoint" />
            <mxPoint x="77" y="135.5" as="targetPoint" />
          </mxGeometry>
        </mxCell>
        <mxCell id="64" value="" style="edgeStyle=elbowEdgeStyle;elbow=horizontal;strokeWidth=2;fillColor=#b1ddf0;endArrow=none;endFill=0;exitX=0.25;exitY=1;exitDx=0;exitDy=0;rounded=0;" parent="1" source="13" target="16" edge="1">
          <mxGeometry x="-23" y="135.5" width="100" height="100" as="geometry">
            <mxPoint x="140" y="460" as="sourcePoint" />
            <mxPoint x="77" y="135.5" as="targetPoint" />
            <Array as="points">
              <mxPoint x="155" y="480" />
              <mxPoint x="155" y="460" />
            </Array>
          </mxGeometry>
        </mxCell>
        <mxCell id="65" value="" style="edgeStyle=elbowEdgeStyle;elbow=horizontal;strokeWidth=2;fillColor=#b1ddf0;endArrow=none;endFill=0;exitX=0.25;exitY=1;exitDx=0;exitDy=0;rounded=0;entryX=0;entryY=0.5;entryDx=0;entryDy=0;" parent="1" source="13" target="5ByG_nBHXtcjosvwfeg_-123" edge="1">
          <mxGeometry x="-23" y="135.5" width="100" height="100" as="geometry">
            <mxPoint x="-23" y="235.5" as="sourcePoint" />
            <mxPoint x="130" y="900" as="targetPoint" />
            <Array as="points">
              <mxPoint x="155" y="440" />
              <mxPoint x="202" y="475.5" />
            </Array>
          </mxGeometry>
        </mxCell>
        <mxCell id="5ByG_nBHXtcjosvwfeg_-107" style="edgeStyle=elbowEdgeStyle;rounded=0;orthogonalLoop=1;jettySize=auto;html=1;exitX=0.25;exitY=1;exitDx=0;exitDy=0;entryX=0;entryY=0.5;entryDx=0;entryDy=0;strokeWidth=2;endArrow=none;endFill=0;" parent="1" source="16" target="AhB3jU3w27tGlZedLERR-131" edge="1">
          <mxGeometry relative="1" as="geometry">
            <Array as="points">
              <mxPoint x="203" y="530" />
              <mxPoint x="167" y="540" />
            </Array>
          </mxGeometry>
        </mxCell>
        <mxCell id="16" value="1.1&#xa;Raport o &#xa;istniejących&#xa;systemach&#xa;" style="fillColor=#b1ddf0;fontStyle=1;fontFamily=Tahoma;fontSize=11;verticalAlign=middle;align=center;spacingTop=5;whiteSpace=wrap;labelPosition=center;verticalLabelPosition=middle;sketch=0;shadow=0;rounded=1;" parent="1" vertex="1">
          <mxGeometry x="170" y="440" width="130" height="60" as="geometry" />
        </mxCell>
        <mxCell id="AhB3jU3w27tGlZedLERR-128" value="2.5&#xa;Model bazy danych" style="fillColor=#b1ddf0;fontStyle=1;fontFamily=Tahoma;fontSize=11;rounded=1;" parent="1" vertex="1">
          <mxGeometry x="500" y="1351" width="130" height="60" as="geometry" />
        </mxCell>
        <mxCell id="AhB3jU3w27tGlZedLERR-129" value="1.1.2.3&#xa;Wnioski" style="fillColor=#b1ddf0;fontStyle=1;fontFamily=Tahoma;fontSize=11;rounded=1;" parent="1" vertex="1">
          <mxGeometry x="260" y="790" width="130" height="60" as="geometry" />
        </mxCell>
        <mxCell id="AhB3jU3w27tGlZedLERR-130" value="1.1.2.2&#xa;Wady" style="fillColor=#b1ddf0;fontStyle=1;fontFamily=Tahoma;fontSize=11;rounded=1;" parent="1" vertex="1">
          <mxGeometry x="260" y="720" width="130" height="60" as="geometry" />
        </mxCell>
        <mxCell id="AhB3jU3w27tGlZedLERR-131" value="1.1.1&#xa;Lista&#xa;istniejących&#xa;systemów" style="fillColor=#b1ddf0;fontStyle=1;fontFamily=Tahoma;fontSize=11;rounded=1;" parent="1" vertex="1">
          <mxGeometry x="220" y="510" width="130" height="60" as="geometry" />
        </mxCell>
        <mxCell id="AhB3jU3w27tGlZedLERR-132" value="1.1.2&#xa;Charakterystyka&#xa;istniejących&#xa;systemów" style="fillColor=#b1ddf0;fontStyle=1;fontFamily=Tahoma;fontSize=11;rounded=1;" parent="1" vertex="1">
          <mxGeometry x="220" y="580" width="130" height="60" as="geometry" />
        </mxCell>
        <mxCell id="AhB3jU3w27tGlZedLERR-133" value="1.3&#xa;Przygotowanie&#xa;do&#xa;pisania pracy&#xa;" style="fillColor=#b1ddf0;fontStyle=1;fontFamily=Tahoma;fontSize=11;align=center;labelPosition=center;verticalLabelPosition=middle;verticalAlign=top;spacing=0;rounded=1;" parent="1" vertex="1">
          <mxGeometry x="170" y="1170" width="130" height="60" as="geometry" />
        </mxCell>
        <mxCell id="AhB3jU3w27tGlZedLERR-134" value="1.2.3&#xa;Mobile" style="fillColor=#b1ddf0;fontStyle=1;fontFamily=Tahoma;fontSize=11;rounded=1;" parent="1" vertex="1">
          <mxGeometry x="220" y="1880" width="130" height="60" as="geometry" />
        </mxCell>
        <mxCell id="AhB3jU3w27tGlZedLERR-135" value="1.2.2&#xa;Backend" style="fillColor=#b1ddf0;fontStyle=1;fontFamily=Tahoma;fontSize=11;rounded=1;" parent="1" vertex="1">
          <mxGeometry x="220" y="1810" width="130" height="60" as="geometry" />
        </mxCell>
        <mxCell id="AhB3jU3w27tGlZedLERR-136" value="1.2.1&#xa;Frontend" style="fillColor=#b1ddf0;fontStyle=1;fontFamily=Tahoma;fontSize=11;rounded=1;" parent="1" vertex="1">
          <mxGeometry x="220" y="1740" width="130" height="60" as="geometry" />
        </mxCell>
        <mxCell id="AhB3jU3w27tGlZedLERR-141" value="1.3.3&#xa;Absstrakt" style="fillColor=#b1ddf0;fontStyle=1;fontFamily=Tahoma;fontSize=11;rounded=1;" parent="1" vertex="1">
          <mxGeometry x="220" y="1380" width="130" height="60" as="geometry" />
        </mxCell>
        <mxCell id="AhB3jU3w27tGlZedLERR-142" value="1.3.2&#xa;przygotowanie&#xa;szablonu LaTeX&#xa;dla pracy inżynierskiej" style="fillColor=#b1ddf0;fontStyle=1;fontFamily=Tahoma;fontSize=11;rounded=1;" parent="1" vertex="1">
          <mxGeometry x="220" y="1310" width="130" height="60" as="geometry" />
        </mxCell>
        <mxCell id="AhB3jU3w27tGlZedLERR-143" value="1.3.1&#xa;konfiguracja&#xa;środowiska&#xa;LaTeX Overleaf" style="fillColor=#b1ddf0;fontStyle=1;fontFamily=Tahoma;fontSize=11;rounded=1;" parent="1" vertex="1">
          <mxGeometry x="220" y="1241" width="130" height="60" as="geometry" />
        </mxCell>
        <mxCell id="AhB3jU3w27tGlZedLERR-144" value="1.3.4&#xa;Abstrakt w języku&#xa;angielskim" style="fillColor=#b1ddf0;fontStyle=1;fontFamily=Tahoma;fontSize=11;rounded=1;" parent="1" vertex="1">
          <mxGeometry x="220" y="1450" width="130" height="60" as="geometry" />
        </mxCell>
        <mxCell id="AhB3jU3w27tGlZedLERR-145" value="1.3.5&#xa;Przygotowanie&#xa;strony tytułowej" style="fillColor=#b1ddf0;fontStyle=1;fontFamily=Tahoma;fontSize=11;rounded=1;" parent="1" vertex="1">
          <mxGeometry x="220" y="1520" width="130" height="60" as="geometry" />
        </mxCell>
        <mxCell id="AhB3jU3w27tGlZedLERR-148" value="2.4.4&#xa;Baza danych" style="fillColor=#b1ddf0;fontStyle=1;fontFamily=Tahoma;fontSize=11;rounded=1;" parent="1" vertex="1">
          <mxGeometry x="550" y="1269" width="130" height="60" as="geometry" />
        </mxCell>
        <mxCell id="AhB3jU3w27tGlZedLERR-149" value="2.4.2&#xa;Back-end" style="fillColor=#b1ddf0;fontStyle=1;fontFamily=Tahoma;fontSize=11;rounded=1;" parent="1" vertex="1">
          <mxGeometry x="550" y="1130" width="130" height="60" as="geometry" />
        </mxCell>
        <mxCell id="AhB3jU3w27tGlZedLERR-150" value="2.4.1&#xa;Front-end" style="fillColor=#b1ddf0;fontStyle=1;fontFamily=Tahoma;fontSize=11;rounded=1;" parent="1" vertex="1">
          <mxGeometry x="550" y="1060" width="130" height="60" as="geometry" />
        </mxCell>
        <mxCell id="AhB3jU3w27tGlZedLERR-151" value="2.4&#xa;Wybór&#xa;technologii" style="fillColor=#b1ddf0;fontStyle=1;fontFamily=Tahoma;fontSize=11;rounded=1;" parent="1" vertex="1">
          <mxGeometry x="500" y="990" width="130" height="60" as="geometry" />
        </mxCell>
        <mxCell id="AhB3jU3w27tGlZedLERR-152" value="2.3.2&#xa;Projekty&#xa;poszczególnych&#xa;interfejsów" style="fillColor=#b1ddf0;fontStyle=1;fontFamily=Tahoma;fontSize=11;rounded=1;" parent="1" vertex="1">
          <mxGeometry x="550" y="910" width="130" height="60" as="geometry" />
        </mxCell>
        <mxCell id="AhB3jU3w27tGlZedLERR-153" value="2.3.1&#xa;Diagramy LoFi" style="fillColor=#b1ddf0;fontStyle=1;fontFamily=Tahoma;fontSize=11;rounded=1;" parent="1" vertex="1">
          <mxGeometry x="550" y="840" width="130" height="60" as="geometry" />
        </mxCell>
        <mxCell id="AhB3jU3w27tGlZedLERR-154" value="2.3&#xa;Projekt&#xa;interfejsu&#xa;użytkownika" style="fillColor=#b1ddf0;fontStyle=1;fontFamily=Tahoma;fontSize=11;rounded=1;" parent="1" vertex="1">
          <mxGeometry x="500" y="770" width="130" height="60" as="geometry" />
        </mxCell>
        <mxCell id="AhB3jU3w27tGlZedLERR-155" value="2.2&#xa;Specyfikacja&#xa;wymagań" style="fillColor=#b1ddf0;fontStyle=1;fontFamily=Tahoma;fontSize=11;rounded=1;" parent="1" vertex="1">
          <mxGeometry x="500" y="520" width="130" height="70" as="geometry" />
        </mxCell>
        <mxCell id="AhB3jU3w27tGlZedLERR-157" value="1.4.3&#xa;Krzywa zapominania&#xa;Ebbinghausa -&#xa;teoria i praktyka" style="fillColor=#b1ddf0;fontStyle=1;fontFamily=Tahoma;fontSize=11;rounded=1;" parent="1" vertex="1">
          <mxGeometry x="220" y="1089" width="130" height="60" as="geometry" />
        </mxCell>
        <mxCell id="AhB3jU3w27tGlZedLERR-158" value="1.4.2&#xa;Uwarunkowania&#xa;procesu&#xa;zapamiętywania" style="fillColor=#b1ddf0;fontStyle=1;fontFamily=Tahoma;fontSize=11;rounded=1;" parent="1" vertex="1">
          <mxGeometry x="220" y="1019" width="130" height="60" as="geometry" />
        </mxCell>
        <mxCell id="AhB3jU3w27tGlZedLERR-159" value="1.4.1&#xa;Rola pamięci&#xa;w opanowaniu&#xa;obcej leksyki" style="fillColor=#b1ddf0;fontStyle=1;fontFamily=Tahoma;fontSize=11;rounded=1;" parent="1" vertex="1">
          <mxGeometry x="220" y="950" width="130" height="60" as="geometry" />
        </mxCell>
        <mxCell id="5ByG_nBHXtcjosvwfeg_-108" style="edgeStyle=elbowEdgeStyle;rounded=0;orthogonalLoop=1;jettySize=auto;html=1;exitX=0.25;exitY=1;exitDx=0;exitDy=0;entryX=0;entryY=0.5;entryDx=0;entryDy=0;strokeWidth=2;endArrow=none;endFill=0;" parent="1" source="16" target="AhB3jU3w27tGlZedLERR-132" edge="1">
          <mxGeometry relative="1" as="geometry">
            <mxPoint x="212.5" y="510.0000000000001" as="sourcePoint" />
            <mxPoint x="230" y="569.9999999999999" as="targetPoint" />
            <Array as="points">
              <mxPoint x="203" y="580" />
              <mxPoint x="213" y="540" />
              <mxPoint x="177" y="550" />
            </Array>
          </mxGeometry>
        </mxCell>
        <mxCell id="5ByG_nBHXtcjosvwfeg_-109" style="edgeStyle=elbowEdgeStyle;rounded=0;orthogonalLoop=1;jettySize=auto;html=1;exitX=0.25;exitY=1;exitDx=0;exitDy=0;entryX=0;entryY=0.5;entryDx=0;entryDy=0;strokeWidth=2;endArrow=none;endFill=0;" parent="1" source="AhB3jU3w27tGlZedLERR-132" target="18" edge="1">
          <mxGeometry relative="1" as="geometry">
            <mxPoint x="190" y="660.0000000000001" as="sourcePoint" />
            <mxPoint x="207.5" y="719.9999999999999" as="targetPoint" />
            <Array as="points">
              <mxPoint x="250" y="680" />
              <mxPoint x="154.5" y="700" />
            </Array>
          </mxGeometry>
        </mxCell>
        <mxCell id="5ByG_nBHXtcjosvwfeg_-110" style="edgeStyle=elbowEdgeStyle;rounded=0;orthogonalLoop=1;jettySize=auto;html=1;exitX=0.25;exitY=1;exitDx=0;exitDy=0;entryX=0;entryY=0.5;entryDx=0;entryDy=0;strokeWidth=2;endArrow=none;endFill=0;" parent="1" source="17" target="AhB3jU3w27tGlZedLERR-135" edge="1">
          <mxGeometry relative="1" as="geometry">
            <mxPoint x="152.5" y="1800" as="sourcePoint" />
            <mxPoint x="170" y="1860" as="targetPoint" />
            <Array as="points">
              <mxPoint x="200" y="1810" />
              <mxPoint x="203" y="1810" />
              <mxPoint x="153" y="1830" />
              <mxPoint x="117" y="1840" />
            </Array>
          </mxGeometry>
        </mxCell>
        <mxCell id="5ByG_nBHXtcjosvwfeg_-111" style="edgeStyle=elbowEdgeStyle;rounded=0;orthogonalLoop=1;jettySize=auto;html=1;exitX=0.25;exitY=1;exitDx=0;exitDy=0;entryX=0;entryY=0.5;entryDx=0;entryDy=0;strokeWidth=2;endArrow=none;endFill=0;" parent="1" source="17" target="AhB3jU3w27tGlZedLERR-134" edge="1">
          <mxGeometry relative="1" as="geometry">
            <mxPoint x="107" y="1770" as="sourcePoint" />
            <mxPoint x="124.5" y="1830" as="targetPoint" />
            <Array as="points">
              <mxPoint x="200" y="1850" />
              <mxPoint x="107.5" y="1800" />
              <mxPoint x="71.5" y="1810" />
            </Array>
          </mxGeometry>
        </mxCell>
        <mxCell id="5ByG_nBHXtcjosvwfeg_-112" style="edgeStyle=elbowEdgeStyle;rounded=0;orthogonalLoop=1;jettySize=auto;html=1;exitX=0.25;exitY=1;exitDx=0;exitDy=0;entryX=0;entryY=0.5;entryDx=0;entryDy=0;strokeWidth=2;endArrow=none;endFill=0;" parent="1" source="17" target="AhB3jU3w27tGlZedLERR-136" edge="1">
          <mxGeometry relative="1" as="geometry">
            <mxPoint x="184" y="1750" as="sourcePoint" />
            <mxPoint x="201.5" y="1810" as="targetPoint" />
            <Array as="points">
              <mxPoint x="200" y="1760" />
              <mxPoint x="184.5" y="1780" />
              <mxPoint x="148.5" y="1790" />
            </Array>
          </mxGeometry>
        </mxCell>
        <mxCell id="5ByG_nBHXtcjosvwfeg_-113" style="edgeStyle=elbowEdgeStyle;rounded=0;orthogonalLoop=1;jettySize=auto;html=1;exitX=0.25;exitY=1;exitDx=0;exitDy=0;entryX=0;entryY=0.5;entryDx=0;entryDy=0;strokeWidth=2;endArrow=none;endFill=0;" parent="1" source="AhB3jU3w27tGlZedLERR-132" target="AhB3jU3w27tGlZedLERR-129" edge="1">
          <mxGeometry relative="1" as="geometry">
            <mxPoint x="100" y="740.0000000000001" as="sourcePoint" />
            <mxPoint x="117.5" y="799.9999999999999" as="targetPoint" />
            <Array as="points">
              <mxPoint x="250" y="790" />
              <mxPoint x="100.5" y="770" />
              <mxPoint x="64.5" y="780" />
            </Array>
          </mxGeometry>
        </mxCell>
        <mxCell id="5ByG_nBHXtcjosvwfeg_-114" style="edgeStyle=elbowEdgeStyle;rounded=0;orthogonalLoop=1;jettySize=auto;html=1;entryX=0;entryY=0.5;entryDx=0;entryDy=0;strokeWidth=2;endArrow=none;endFill=0;exitX=0.25;exitY=1;exitDx=0;exitDy=0;" parent="1" source="AhB3jU3w27tGlZedLERR-132" target="AhB3jU3w27tGlZedLERR-130" edge="1">
          <mxGeometry relative="1" as="geometry">
            <mxPoint x="260" y="670" as="sourcePoint" />
            <mxPoint x="270" y="710" as="targetPoint" />
            <Array as="points">
              <mxPoint x="250" y="730" />
              <mxPoint x="260" y="690" />
              <mxPoint x="164.5" y="710" />
            </Array>
          </mxGeometry>
        </mxCell>
        <mxCell id="5ByG_nBHXtcjosvwfeg_-115" value="1.3.6&#xa;Przygotowanie&#xa;spisu treści" style="fillColor=#b1ddf0;fontStyle=1;fontFamily=Tahoma;fontSize=11;rounded=1;" parent="1" vertex="1">
          <mxGeometry x="220" y="1590" width="130" height="60" as="geometry" />
        </mxCell>
        <mxCell id="5ByG_nBHXtcjosvwfeg_-116" value="" style="edgeStyle=elbowEdgeStyle;elbow=horizontal;strokeWidth=2;fillColor=#b1ddf0;endArrow=none;endFill=0;exitX=0.25;exitY=1;exitDx=0;exitDy=0;rounded=0;entryX=0;entryY=0.5;entryDx=0;entryDy=0;" parent="1" source="13" target="AhB3jU3w27tGlZedLERR-133" edge="1">
          <mxGeometry x="-13" y="145.5" width="100" height="100" as="geometry">
            <mxPoint x="164.5" y="425.5" as="sourcePoint" />
            <mxPoint x="180" y="910" as="targetPoint" />
            <Array as="points">
              <mxPoint x="155" y="970" />
              <mxPoint x="165" y="450" />
              <mxPoint x="212" y="485.5" />
            </Array>
          </mxGeometry>
        </mxCell>
        <mxCell id="5ByG_nBHXtcjosvwfeg_-117" style="edgeStyle=elbowEdgeStyle;rounded=0;orthogonalLoop=1;jettySize=auto;html=1;exitX=0.25;exitY=1;exitDx=0;exitDy=0;entryX=0;entryY=0.5;entryDx=0;entryDy=0;strokeWidth=2;endArrow=none;endFill=0;" parent="1" source="AhB3jU3w27tGlZedLERR-133" target="AhB3jU3w27tGlZedLERR-143" edge="1">
          <mxGeometry relative="1" as="geometry">
            <mxPoint x="72.5" y="1140" as="sourcePoint" />
            <mxPoint x="90" y="1320" as="targetPoint" />
            <Array as="points">
              <mxPoint x="203" y="1260" />
              <mxPoint x="70" y="1260" />
              <mxPoint x="-22.5" y="1210" />
              <mxPoint x="-58.5" y="1220" />
            </Array>
          </mxGeometry>
        </mxCell>
        <mxCell id="5ByG_nBHXtcjosvwfeg_-118" style="edgeStyle=elbowEdgeStyle;rounded=0;orthogonalLoop=1;jettySize=auto;html=1;exitX=0.25;exitY=1;exitDx=0;exitDy=0;entryX=0;entryY=0.5;entryDx=0;entryDy=0;strokeWidth=2;endArrow=none;endFill=0;" parent="1" source="AhB3jU3w27tGlZedLERR-133" target="AhB3jU3w27tGlZedLERR-142" edge="1">
          <mxGeometry relative="1" as="geometry">
            <mxPoint x="212.5" y="1240" as="sourcePoint" />
            <mxPoint x="230" y="1281" as="targetPoint" />
            <Array as="points">
              <mxPoint x="203" y="1250" />
              <mxPoint x="210" y="1290" />
              <mxPoint x="200" y="1300" />
              <mxPoint x="210" y="1260" />
              <mxPoint x="80" y="1270" />
              <mxPoint x="-12.5" y="1220" />
              <mxPoint x="-48.5" y="1230" />
            </Array>
          </mxGeometry>
        </mxCell>
        <mxCell id="5ByG_nBHXtcjosvwfeg_-119" style="edgeStyle=elbowEdgeStyle;rounded=0;orthogonalLoop=1;jettySize=auto;html=1;exitX=0.25;exitY=1;exitDx=0;exitDy=0;entryX=0;entryY=0.5;entryDx=0;entryDy=0;strokeWidth=2;endArrow=none;endFill=0;" parent="1" source="AhB3jU3w27tGlZedLERR-133" target="AhB3jU3w27tGlZedLERR-141" edge="1">
          <mxGeometry relative="1" as="geometry">
            <mxPoint x="222.5" y="1250" as="sourcePoint" />
            <mxPoint x="230" y="1350.0000000000002" as="targetPoint" />
            <Array as="points">
              <mxPoint x="203" y="1300" />
              <mxPoint x="210" y="1310" />
              <mxPoint x="220" y="1270" />
              <mxPoint x="90" y="1280" />
              <mxPoint x="-2.5" y="1230" />
              <mxPoint x="-38.5" y="1240" />
            </Array>
          </mxGeometry>
        </mxCell>
        <mxCell id="5ByG_nBHXtcjosvwfeg_-120" style="edgeStyle=elbowEdgeStyle;rounded=0;orthogonalLoop=1;jettySize=auto;html=1;exitX=0.25;exitY=1;exitDx=0;exitDy=0;entryX=0;entryY=0.5;entryDx=0;entryDy=0;strokeWidth=2;endArrow=none;endFill=0;" parent="1" source="AhB3jU3w27tGlZedLERR-133" target="AhB3jU3w27tGlZedLERR-144" edge="1">
          <mxGeometry relative="1" as="geometry">
            <mxPoint x="212.5" y="1240" as="sourcePoint" />
            <mxPoint x="230" y="1420.0000000000002" as="targetPoint" />
            <Array as="points">
              <mxPoint x="203" y="1320" />
              <mxPoint x="213" y="1310" />
              <mxPoint x="220" y="1320" />
              <mxPoint x="230" y="1280" />
              <mxPoint x="100" y="1290" />
              <mxPoint x="7.5" y="1240" />
              <mxPoint x="-28.5" y="1250" />
            </Array>
          </mxGeometry>
        </mxCell>
        <mxCell id="5ByG_nBHXtcjosvwfeg_-121" style="edgeStyle=elbowEdgeStyle;rounded=0;orthogonalLoop=1;jettySize=auto;html=1;exitX=0.25;exitY=1;exitDx=0;exitDy=0;entryX=0;entryY=0.5;entryDx=0;entryDy=0;strokeWidth=2;endArrow=none;endFill=0;" parent="1" source="AhB3jU3w27tGlZedLERR-133" target="AhB3jU3w27tGlZedLERR-145" edge="1">
          <mxGeometry relative="1" as="geometry">
            <mxPoint x="212.5" y="1240" as="sourcePoint" />
            <mxPoint x="230" y="1490.0000000000002" as="targetPoint" />
            <Array as="points">
              <mxPoint x="203" y="1370" />
              <mxPoint x="213" y="1330" />
              <mxPoint x="223" y="1320" />
              <mxPoint x="230" y="1330" />
              <mxPoint x="240" y="1290" />
              <mxPoint x="110" y="1300" />
              <mxPoint x="17.5" y="1250" />
              <mxPoint x="-18.5" y="1260" />
            </Array>
          </mxGeometry>
        </mxCell>
        <mxCell id="5ByG_nBHXtcjosvwfeg_-122" style="edgeStyle=elbowEdgeStyle;rounded=0;orthogonalLoop=1;jettySize=auto;html=1;exitX=0.25;exitY=1;exitDx=0;exitDy=0;entryX=0;entryY=0.5;entryDx=0;entryDy=0;strokeWidth=2;endArrow=none;endFill=0;" parent="1" source="AhB3jU3w27tGlZedLERR-133" target="5ByG_nBHXtcjosvwfeg_-115" edge="1">
          <mxGeometry relative="1" as="geometry">
            <mxPoint x="212.5" y="1240" as="sourcePoint" />
            <mxPoint x="230" y="1560.0000000000002" as="targetPoint" />
            <Array as="points">
              <mxPoint x="203" y="1540" />
              <mxPoint x="213" y="1380" />
              <mxPoint x="223" y="1340" />
              <mxPoint x="233" y="1330" />
              <mxPoint x="240" y="1340" />
              <mxPoint x="250" y="1300" />
              <mxPoint x="120" y="1310" />
              <mxPoint x="27.5" y="1260" />
              <mxPoint x="-8.5" y="1270" />
            </Array>
          </mxGeometry>
        </mxCell>
        <mxCell id="5ByG_nBHXtcjosvwfeg_-123" value="1.4&#xa;Przegląd literatury&#xa;z zakresu metodologii&#xa;nauczania języków" style="fillColor=#b1ddf0;fontStyle=1;fontFamily=Tahoma;fontSize=11;align=center;labelPosition=center;verticalLabelPosition=middle;verticalAlign=top;spacing=0;rounded=1;" parent="1" vertex="1">
          <mxGeometry x="170" y="870" width="130" height="60" as="geometry" />
        </mxCell>
        <mxCell id="5ByG_nBHXtcjosvwfeg_-124" style="edgeStyle=elbowEdgeStyle;rounded=0;orthogonalLoop=1;jettySize=auto;html=1;exitX=0.25;exitY=1;exitDx=0;exitDy=0;entryX=0;entryY=0.5;entryDx=0;entryDy=0;strokeWidth=2;endArrow=none;endFill=0;" parent="1" source="5ByG_nBHXtcjosvwfeg_-123" target="AhB3jU3w27tGlZedLERR-159" edge="1">
          <mxGeometry relative="1" as="geometry">
            <mxPoint x="193.25" y="950" as="sourcePoint" />
            <mxPoint x="210.75" y="991" as="targetPoint" />
            <Array as="points">
              <mxPoint x="203" y="960" />
              <mxPoint x="60.75" y="980" />
              <mxPoint x="-31.75" y="930" />
              <mxPoint x="-67.75" y="940" />
            </Array>
          </mxGeometry>
        </mxCell>
        <mxCell id="5ByG_nBHXtcjosvwfeg_-125" style="edgeStyle=elbowEdgeStyle;rounded=0;orthogonalLoop=1;jettySize=auto;html=1;exitX=0.25;exitY=1;exitDx=0;exitDy=0;entryX=0;entryY=0.5;entryDx=0;entryDy=0;strokeWidth=2;endArrow=none;endFill=0;" parent="1" source="5ByG_nBHXtcjosvwfeg_-123" target="AhB3jU3w27tGlZedLERR-158" edge="1">
          <mxGeometry relative="1" as="geometry">
            <mxPoint x="212.5" y="940" as="sourcePoint" />
            <mxPoint x="230" y="990" as="targetPoint" />
            <Array as="points">
              <mxPoint x="203" y="970" />
              <mxPoint x="213" y="970" />
              <mxPoint x="70.75" y="990" />
              <mxPoint x="-21.75" y="940" />
              <mxPoint x="-57.75" y="950" />
            </Array>
          </mxGeometry>
        </mxCell>
        <mxCell id="5ByG_nBHXtcjosvwfeg_-126" style="edgeStyle=elbowEdgeStyle;rounded=0;orthogonalLoop=1;jettySize=auto;html=1;exitX=0.25;exitY=1;exitDx=0;exitDy=0;entryX=0;entryY=0.5;entryDx=0;entryDy=0;strokeWidth=2;endArrow=none;endFill=0;" parent="1" source="5ByG_nBHXtcjosvwfeg_-123" target="AhB3jU3w27tGlZedLERR-157" edge="1">
          <mxGeometry relative="1" as="geometry">
            <mxPoint x="212.5" y="940" as="sourcePoint" />
            <mxPoint x="230" y="1059" as="targetPoint" />
            <Array as="points">
              <mxPoint x="203" y="1080" />
              <mxPoint x="213" y="980" />
              <mxPoint x="223" y="980" />
              <mxPoint x="80.75" y="1000" />
              <mxPoint x="-11.75" y="950" />
              <mxPoint x="-47.75" y="960" />
            </Array>
          </mxGeometry>
        </mxCell>
        <mxCell id="5ByG_nBHXtcjosvwfeg_-127" value="" style="edgeStyle=elbowEdgeStyle;elbow=horizontal;strokeWidth=2;fillColor=#b1ddf0;endArrow=none;endFill=0;exitX=0.25;exitY=1;exitDx=0;exitDy=0;rounded=0;entryX=0;entryY=0.5;entryDx=0;entryDy=0;" parent="1" source="13" target="17" edge="1">
          <mxGeometry x="-3" y="155.5" width="100" height="100" as="geometry">
            <mxPoint x="164.5" y="425.5" as="sourcePoint" />
            <mxPoint x="130" y="1681" as="targetPoint" />
            <Array as="points">
              <mxPoint x="155" y="1250" />
              <mxPoint x="165" y="980" />
              <mxPoint x="175" y="460" />
              <mxPoint x="222" y="495.5" />
            </Array>
          </mxGeometry>
        </mxCell>
        <mxCell id="5ByG_nBHXtcjosvwfeg_-128" value="2.&#xa;Projekt architektury&#xa;systemu" style="fillColor=#b1ddf0;fontStyle=1;fontFamily=Tahoma;fontSize=14;rounded=1;" parent="1" vertex="1">
          <mxGeometry x="440" y="335.5" width="190" height="80" as="geometry" />
        </mxCell>
        <mxCell id="5ByG_nBHXtcjosvwfeg_-129" value="3.&#xa;Implementacja&#xa;systemu" style="fillColor=#b1ddf0;fontStyle=1;fontFamily=Tahoma;fontSize=14;rounded=1;" parent="1" vertex="1">
          <mxGeometry x="757" y="335.5" width="190" height="80" as="geometry" />
        </mxCell>
        <mxCell id="5ByG_nBHXtcjosvwfeg_-130" value="4.&#xa;Testowanie&#xa;systemu" style="fillColor=#b1ddf0;fontStyle=1;fontFamily=Tahoma;fontSize=14;rounded=1;" parent="1" vertex="1">
          <mxGeometry x="1090" y="335.5" width="190" height="80" as="geometry" />
        </mxCell>
        <mxCell id="5ByG_nBHXtcjosvwfeg_-132" value="5.&#xa;Wnioski" style="fillColor=#b1ddf0;fontStyle=1;fontFamily=Tahoma;fontSize=14;rounded=1;" parent="1" vertex="1">
          <mxGeometry x="1430" y="335.5" width="190" height="80" as="geometry" />
        </mxCell>
        <mxCell id="5ByG_nBHXtcjosvwfeg_-133" value="2.2.1&#xa;Wymagania &#xa;funkcjonalne" style="fillColor=#b1ddf0;fontStyle=1;fontFamily=Tahoma;fontSize=11;rounded=1;" parent="1" vertex="1">
          <mxGeometry x="550" y="600" width="130" height="70" as="geometry" />
        </mxCell>
        <mxCell id="5ByG_nBHXtcjosvwfeg_-134" value="2.2.2&#xa;Wymagania&#xa;niefunkcjonalne" style="fillColor=#b1ddf0;fontStyle=1;fontFamily=Tahoma;fontSize=11;rounded=1;" parent="1" vertex="1">
          <mxGeometry x="550" y="680" width="130" height="70" as="geometry" />
        </mxCell>
        <mxCell id="5ByG_nBHXtcjosvwfeg_-135" value="2.1&#xa;Nazwa systemu" style="fillColor=#b1ddf0;fontStyle=1;fontFamily=Tahoma;fontSize=11;rounded=1;" parent="1" vertex="1">
          <mxGeometry x="500" y="440" width="130" height="60" as="geometry" />
        </mxCell>
        <mxCell id="5ByG_nBHXtcjosvwfeg_-136" style="edgeStyle=elbowEdgeStyle;rounded=0;orthogonalLoop=1;jettySize=auto;html=1;exitX=0.25;exitY=1;exitDx=0;exitDy=0;entryX=0;entryY=0.5;entryDx=0;entryDy=0;strokeWidth=2;endArrow=none;endFill=0;" parent="1" source="5ByG_nBHXtcjosvwfeg_-128" target="5ByG_nBHXtcjosvwfeg_-135" edge="1">
          <mxGeometry relative="1" as="geometry">
            <mxPoint x="450" y="450" as="sourcePoint" />
            <mxPoint x="467.5" y="560" as="targetPoint" />
            <Array as="points">
              <mxPoint x="488" y="460" />
              <mxPoint x="430" y="510" />
              <mxPoint x="450.5" y="530" />
              <mxPoint x="460.5" y="490" />
              <mxPoint x="424.5" y="500" />
            </Array>
          </mxGeometry>
        </mxCell>
        <mxCell id="5ByG_nBHXtcjosvwfeg_-137" style="edgeStyle=elbowEdgeStyle;rounded=0;orthogonalLoop=1;jettySize=auto;html=1;exitX=0.25;exitY=1;exitDx=0;exitDy=0;entryX=0;entryY=0.5;entryDx=0;entryDy=0;strokeWidth=2;endArrow=none;endFill=0;" parent="1" source="5ByG_nBHXtcjosvwfeg_-128" target="AhB3jU3w27tGlZedLERR-155" edge="1">
          <mxGeometry relative="1" as="geometry">
            <mxPoint x="450" y="500" as="sourcePoint" />
            <mxPoint x="462.5" y="554.5" as="targetPoint" />
            <Array as="points">
              <mxPoint x="488" y="520" />
              <mxPoint x="450.5" y="544.5" />
              <mxPoint x="392.5" y="594.5" />
              <mxPoint x="413" y="614.5" />
              <mxPoint x="423" y="574.5" />
              <mxPoint x="387" y="584.5" />
            </Array>
          </mxGeometry>
        </mxCell>
        <mxCell id="5ByG_nBHXtcjosvwfeg_-138" style="edgeStyle=elbowEdgeStyle;rounded=0;orthogonalLoop=1;jettySize=auto;html=1;exitX=0.25;exitY=1;exitDx=0;exitDy=0;entryX=0;entryY=0.5;entryDx=0;entryDy=0;strokeWidth=2;endArrow=none;endFill=0;" parent="1" source="5ByG_nBHXtcjosvwfeg_-128" target="AhB3jU3w27tGlZedLERR-154" edge="1">
          <mxGeometry relative="1" as="geometry">
            <mxPoint x="497.5" y="425.5" as="sourcePoint" />
            <mxPoint x="510" y="565" as="targetPoint" />
            <Array as="points">
              <mxPoint x="488" y="640" />
              <mxPoint x="460.5" y="554.5" />
              <mxPoint x="402.5" y="604.5" />
              <mxPoint x="423" y="624.5" />
              <mxPoint x="433" y="584.5" />
              <mxPoint x="397" y="594.5" />
            </Array>
          </mxGeometry>
        </mxCell>
        <mxCell id="5ByG_nBHXtcjosvwfeg_-139" style="edgeStyle=elbowEdgeStyle;rounded=0;orthogonalLoop=1;jettySize=auto;html=1;exitX=0.25;exitY=1;exitDx=0;exitDy=0;entryX=0;entryY=0.5;entryDx=0;entryDy=0;strokeWidth=2;endArrow=none;endFill=0;" parent="1" source="AhB3jU3w27tGlZedLERR-155" target="5ByG_nBHXtcjosvwfeg_-134" edge="1">
          <mxGeometry relative="1" as="geometry">
            <mxPoint x="460" y="530.5" as="sourcePoint" />
            <mxPoint x="472.5" y="670" as="targetPoint" />
            <Array as="points">
              <mxPoint x="533" y="680" />
              <mxPoint x="488" y="540" />
              <mxPoint x="460.5" y="635" />
              <mxPoint x="423" y="659.5" />
              <mxPoint x="365" y="709.5" />
              <mxPoint x="385.5" y="729.5" />
              <mxPoint x="395.5" y="689.5" />
              <mxPoint x="359.5" y="699.5" />
            </Array>
          </mxGeometry>
        </mxCell>
        <mxCell id="5ByG_nBHXtcjosvwfeg_-140" style="edgeStyle=elbowEdgeStyle;rounded=0;orthogonalLoop=1;jettySize=auto;html=1;entryX=0;entryY=0.5;entryDx=0;entryDy=0;strokeWidth=2;endArrow=none;endFill=0;exitX=0.25;exitY=1;exitDx=0;exitDy=0;" parent="1" source="AhB3jU3w27tGlZedLERR-155" target="5ByG_nBHXtcjosvwfeg_-133" edge="1">
          <mxGeometry relative="1" as="geometry">
            <mxPoint x="533" y="620" as="sourcePoint" />
            <mxPoint x="482.5" y="679.9999999999998" as="targetPoint" />
            <Array as="points">
              <mxPoint x="533" y="620" />
              <mxPoint x="540" y="610" />
              <mxPoint x="433" y="669.5" />
              <mxPoint x="375" y="719.5" />
              <mxPoint x="395.5" y="739.5" />
              <mxPoint x="405.5" y="699.5" />
              <mxPoint x="369.5" y="709.5" />
            </Array>
          </mxGeometry>
        </mxCell>
        <mxCell id="5ByG_nBHXtcjosvwfeg_-141" style="edgeStyle=elbowEdgeStyle;rounded=0;orthogonalLoop=1;jettySize=auto;html=1;exitX=0.25;exitY=1;exitDx=0;exitDy=0;entryX=0;entryY=0.5;entryDx=0;entryDy=0;strokeWidth=2;endArrow=none;endFill=0;" parent="1" source="AhB3jU3w27tGlZedLERR-154" target="AhB3jU3w27tGlZedLERR-153" edge="1">
          <mxGeometry relative="1" as="geometry">
            <mxPoint x="450" y="830" as="sourcePoint" />
            <mxPoint x="467.5" y="954.9999999999998" as="targetPoint" />
            <Array as="points">
              <mxPoint x="533" y="850" />
              <mxPoint x="405.5" y="780" />
              <mxPoint x="378" y="875" />
              <mxPoint x="340.5" y="899.5" />
              <mxPoint x="282.5" y="949.5" />
              <mxPoint x="303" y="969.5" />
              <mxPoint x="313" y="929.5" />
              <mxPoint x="277" y="939.5" />
            </Array>
          </mxGeometry>
        </mxCell>
        <mxCell id="5ByG_nBHXtcjosvwfeg_-142" style="edgeStyle=elbowEdgeStyle;rounded=0;orthogonalLoop=1;jettySize=auto;html=1;exitX=0.25;exitY=1;exitDx=0;exitDy=0;entryX=0;entryY=0.5;entryDx=0;entryDy=0;strokeWidth=2;endArrow=none;endFill=0;" parent="1" source="AhB3jU3w27tGlZedLERR-154" target="AhB3jU3w27tGlZedLERR-152" edge="1">
          <mxGeometry relative="1" as="geometry">
            <mxPoint x="542.5" y="839.9999999999998" as="sourcePoint" />
            <mxPoint x="560" y="879.9999999999998" as="targetPoint" />
            <Array as="points">
              <mxPoint x="533" y="900" />
              <mxPoint x="460.5" y="930" />
              <mxPoint x="415.5" y="790" />
              <mxPoint x="388" y="885" />
              <mxPoint x="350.5" y="909.5" />
              <mxPoint x="292.5" y="959.5" />
              <mxPoint x="313" y="979.5" />
              <mxPoint x="323" y="939.5" />
              <mxPoint x="287" y="949.5" />
            </Array>
          </mxGeometry>
        </mxCell>
        <mxCell id="5ByG_nBHXtcjosvwfeg_-143" value="2.5.1&#xa;Diagramy ERD" style="fillColor=#b1ddf0;fontStyle=1;fontFamily=Tahoma;fontSize=11;rounded=1;" parent="1" vertex="1">
          <mxGeometry x="550" y="1421" width="130" height="60" as="geometry" />
        </mxCell>
        <mxCell id="5ByG_nBHXtcjosvwfeg_-144" value="2.5.2&#xa;Relacje" style="fillColor=#b1ddf0;fontStyle=1;fontFamily=Tahoma;fontSize=11;rounded=1;" parent="1" vertex="1">
          <mxGeometry x="550" y="1491" width="130" height="60" as="geometry" />
        </mxCell>
        <mxCell id="5ByG_nBHXtcjosvwfeg_-145" style="edgeStyle=elbowEdgeStyle;rounded=0;orthogonalLoop=1;jettySize=auto;html=1;exitX=0.25;exitY=1;exitDx=0;exitDy=0;entryX=0;entryY=0.5;entryDx=0;entryDy=0;strokeWidth=2;endArrow=none;endFill=0;" parent="1" source="5ByG_nBHXtcjosvwfeg_-128" target="AhB3jU3w27tGlZedLERR-128" edge="1">
          <mxGeometry relative="1" as="geometry">
            <mxPoint x="410" y="620" as="sourcePoint" />
            <mxPoint x="422.5" y="1004.4999999999998" as="targetPoint" />
            <Array as="points">
              <mxPoint x="488" y="960" />
              <mxPoint x="410.5" y="844.5" />
              <mxPoint x="383" y="759" />
              <mxPoint x="325" y="809" />
              <mxPoint x="345.5" y="829" />
              <mxPoint x="355.5" y="789" />
              <mxPoint x="319.5" y="799" />
            </Array>
          </mxGeometry>
        </mxCell>
        <mxCell id="5ByG_nBHXtcjosvwfeg_-146" style="edgeStyle=elbowEdgeStyle;rounded=0;orthogonalLoop=1;jettySize=auto;html=1;exitX=0.25;exitY=1;exitDx=0;exitDy=0;entryX=0;entryY=0.5;entryDx=0;entryDy=0;strokeWidth=2;endArrow=none;endFill=0;" parent="1" source="5ByG_nBHXtcjosvwfeg_-128" target="AhB3jU3w27tGlZedLERR-151" edge="1">
          <mxGeometry relative="1" as="geometry">
            <mxPoint x="497.5" y="425.5" as="sourcePoint" />
            <mxPoint x="432.5" y="1014.4999999999998" as="targetPoint" />
            <Array as="points">
              <mxPoint x="488" y="910" />
              <mxPoint x="420.5" y="854.5" />
              <mxPoint x="393" y="769" />
              <mxPoint x="335" y="819" />
              <mxPoint x="355.5" y="839" />
              <mxPoint x="365.5" y="799" />
              <mxPoint x="329.5" y="809" />
            </Array>
          </mxGeometry>
        </mxCell>
        <mxCell id="5ByG_nBHXtcjosvwfeg_-148" style="edgeStyle=elbowEdgeStyle;rounded=0;orthogonalLoop=1;jettySize=auto;html=1;exitX=0.25;exitY=1;exitDx=0;exitDy=0;entryX=0;entryY=0.5;entryDx=0;entryDy=0;strokeWidth=2;endArrow=none;endFill=0;" parent="1" source="AhB3jU3w27tGlZedLERR-151" target="AhB3jU3w27tGlZedLERR-150" edge="1">
          <mxGeometry relative="1" as="geometry">
            <mxPoint x="510" y="1063.9999999999998" as="sourcePoint" />
            <mxPoint x="527.5" y="1173.9999999999998" as="targetPoint" />
            <Array as="points">
              <mxPoint x="533" y="1070" />
              <mxPoint x="510.5" y="1134" />
              <mxPoint x="438" y="1164" />
              <mxPoint x="393" y="1024" />
              <mxPoint x="365.5" y="1119" />
              <mxPoint x="328" y="1143.5" />
              <mxPoint x="270" y="1193.5" />
              <mxPoint x="290.5" y="1213.5" />
              <mxPoint x="300.5" y="1173.5" />
              <mxPoint x="264.5" y="1183.5" />
            </Array>
          </mxGeometry>
        </mxCell>
        <mxCell id="5ByG_nBHXtcjosvwfeg_-149" style="edgeStyle=elbowEdgeStyle;rounded=0;orthogonalLoop=1;jettySize=auto;html=1;exitX=0.25;exitY=1;exitDx=0;exitDy=0;entryX=0;entryY=0.5;entryDx=0;entryDy=0;strokeWidth=2;endArrow=none;endFill=0;" parent="1" source="AhB3jU3w27tGlZedLERR-151" target="AhB3jU3w27tGlZedLERR-149" edge="1">
          <mxGeometry relative="1" as="geometry">
            <mxPoint x="542.5" y="1059.9999999999998" as="sourcePoint" />
            <mxPoint x="560" y="1099.9999999999998" as="targetPoint" />
            <Array as="points">
              <mxPoint x="533" y="1130" />
              <mxPoint x="543" y="1080" />
              <mxPoint x="520.5" y="1144" />
              <mxPoint x="448" y="1174" />
              <mxPoint x="403" y="1034" />
              <mxPoint x="375.5" y="1129" />
              <mxPoint x="338" y="1153.5" />
              <mxPoint x="280" y="1203.5" />
              <mxPoint x="300.5" y="1223.5" />
              <mxPoint x="310.5" y="1183.5" />
              <mxPoint x="274.5" y="1193.5" />
            </Array>
          </mxGeometry>
        </mxCell>
        <mxCell id="5ByG_nBHXtcjosvwfeg_-150" style="edgeStyle=elbowEdgeStyle;rounded=0;orthogonalLoop=1;jettySize=auto;html=1;exitX=0.25;exitY=1;exitDx=0;exitDy=0;entryX=0;entryY=0.5;entryDx=0;entryDy=0;strokeWidth=2;endArrow=none;endFill=0;" parent="1" source="AhB3jU3w27tGlZedLERR-151" target="AhB3jU3w27tGlZedLERR-148" edge="1">
          <mxGeometry relative="1" as="geometry">
            <mxPoint x="552.5" y="1069.9999999999998" as="sourcePoint" />
            <mxPoint x="560" y="1169.9999999999998" as="targetPoint" />
            <Array as="points">
              <mxPoint x="533" y="1120" />
              <mxPoint x="553" y="1090" />
              <mxPoint x="530.5" y="1154" />
              <mxPoint x="458" y="1184" />
              <mxPoint x="413" y="1044" />
              <mxPoint x="385.5" y="1139" />
              <mxPoint x="348" y="1163.5" />
              <mxPoint x="290" y="1213.5" />
              <mxPoint x="310.5" y="1233.5" />
              <mxPoint x="320.5" y="1193.5" />
              <mxPoint x="284.5" y="1203.5" />
            </Array>
          </mxGeometry>
        </mxCell>
        <mxCell id="5ByG_nBHXtcjosvwfeg_-151" style="edgeStyle=elbowEdgeStyle;rounded=0;orthogonalLoop=1;jettySize=auto;html=1;exitX=0.25;exitY=1;exitDx=0;exitDy=0;entryX=0;entryY=0.5;entryDx=0;entryDy=0;strokeWidth=2;endArrow=none;endFill=0;" parent="1" source="AhB3jU3w27tGlZedLERR-128" target="5ByG_nBHXtcjosvwfeg_-144" edge="1">
          <mxGeometry relative="1" as="geometry">
            <mxPoint x="460" y="1390.9999999999998" as="sourcePoint" />
            <mxPoint x="477.5" y="1571" as="targetPoint" />
            <Array as="points">
              <mxPoint x="533" y="1481" />
              <mxPoint x="460.5" y="1461" />
              <mxPoint x="480.5" y="1431" />
              <mxPoint x="458" y="1495" />
              <mxPoint x="385.5" y="1525" />
              <mxPoint x="340.5" y="1385" />
              <mxPoint x="313" y="1480" />
              <mxPoint x="275.5" y="1504.5" />
              <mxPoint x="217.5" y="1554.5" />
              <mxPoint x="238" y="1574.5" />
              <mxPoint x="248" y="1534.5" />
              <mxPoint x="212" y="1544.5" />
            </Array>
          </mxGeometry>
        </mxCell>
        <mxCell id="5ByG_nBHXtcjosvwfeg_-152" style="edgeStyle=elbowEdgeStyle;rounded=0;orthogonalLoop=1;jettySize=auto;html=1;exitX=0.25;exitY=1;exitDx=0;exitDy=0;entryX=0;entryY=0.5;entryDx=0;entryDy=0;strokeWidth=2;endArrow=none;endFill=0;" parent="1" source="AhB3jU3w27tGlZedLERR-128" target="5ByG_nBHXtcjosvwfeg_-143" edge="1">
          <mxGeometry relative="1" as="geometry">
            <mxPoint x="542.5" y="1421" as="sourcePoint" />
            <mxPoint x="560" y="1531" as="targetPoint" />
            <Array as="points">
              <mxPoint x="533" y="1431" />
              <mxPoint x="490.5" y="1441" />
              <mxPoint x="468" y="1505" />
              <mxPoint x="395.5" y="1535" />
              <mxPoint x="350.5" y="1395" />
              <mxPoint x="323" y="1490" />
              <mxPoint x="285.5" y="1514.5" />
              <mxPoint x="227.5" y="1564.5" />
              <mxPoint x="248" y="1584.5" />
              <mxPoint x="258" y="1544.5" />
              <mxPoint x="222" y="1554.5" />
            </Array>
          </mxGeometry>
        </mxCell>
        <mxCell id="5ByG_nBHXtcjosvwfeg_-153" value="6.&#xa;Załączniki" style="fillColor=#b1ddf0;fontStyle=1;fontFamily=Tahoma;fontSize=14;rounded=1;" parent="1" vertex="1">
          <mxGeometry x="1740" y="335.5" width="190" height="80" as="geometry" />
        </mxCell>
        <mxCell id="5ByG_nBHXtcjosvwfeg_-154" value="6.1&#xa;Bibliografia" style="fillColor=#b1ddf0;fontStyle=1;fontFamily=Tahoma;fontSize=11;rounded=1;" parent="1" vertex="1">
          <mxGeometry x="1800" y="440" width="130" height="60" as="geometry" />
        </mxCell>
        <mxCell id="5ByG_nBHXtcjosvwfeg_-155" value="6.3&#xa;Dokumentacja&#xa;systemu" style="fillColor=#b1ddf0;fontStyle=1;fontFamily=Tahoma;fontSize=11;rounded=1;" parent="1" vertex="1">
          <mxGeometry x="1800" y="600" width="130" height="60" as="geometry" />
        </mxCell>
        <mxCell id="5ByG_nBHXtcjosvwfeg_-156" value="6.2&#xa;Specyfikacja&#xa;wymagań" style="fillColor=#b1ddf0;fontStyle=1;fontFamily=Tahoma;fontSize=11;rounded=1;" parent="1" vertex="1">
          <mxGeometry x="1800" y="520" width="130" height="60" as="geometry" />
        </mxCell>
        <mxCell id="5ByG_nBHXtcjosvwfeg_-157" value="6.4&#xa;Dokumntacja&#xa;wdrożeniowa" style="fillColor=#b1ddf0;fontStyle=1;fontFamily=Tahoma;fontSize=11;rounded=1;" parent="1" vertex="1">
          <mxGeometry x="1800" y="680" width="130" height="60" as="geometry" />
        </mxCell>
        <mxCell id="5ByG_nBHXtcjosvwfeg_-158" value="5.3&#xa;Kierunki&#xa;dalszego&#xa;rozwoju systemu" style="fillColor=#b1ddf0;fontStyle=1;fontFamily=Tahoma;fontSize=11;rounded=1;" parent="1" vertex="1">
          <mxGeometry x="1490" y="810" width="130" height="60" as="geometry" />
        </mxCell>
        <mxCell id="5ByG_nBHXtcjosvwfeg_-159" value="6.2.3&#xa;" style="fillColor=#b1ddf0;fontStyle=1;fontFamily=Tahoma;fontSize=11;rounded=1;" parent="1" vertex="1">
          <mxGeometry x="1544" y="740" width="130" height="60" as="geometry" />
        </mxCell>
        <mxCell id="5ByG_nBHXtcjosvwfeg_-160" value="5.2&#xa;Ocena&#xa;bieżącego stanu &#xa;systemu" style="fillColor=#b1ddf0;fontStyle=1;fontFamily=Tahoma;fontSize=11;rounded=1;" parent="1" vertex="1">
          <mxGeometry x="1490" y="520" width="130" height="60" as="geometry" />
        </mxCell>
        <mxCell id="5ByG_nBHXtcjosvwfeg_-161" value="5.2.1&#xa;Analiza&#xa; zrealizowanych&#xa;funkcjonalności" style="fillColor=#b1ddf0;fontStyle=1;fontFamily=Tahoma;fontSize=11;rounded=1;" parent="1" vertex="1">
          <mxGeometry x="1544" y="600" width="130" height="60" as="geometry" />
        </mxCell>
        <mxCell id="5ByG_nBHXtcjosvwfeg_-162" value="5.2.2&#xa;Analiza&#xa;funkcjonalności&#xa;niezreallizowanych" style="fillColor=#b1ddf0;fontStyle=1;fontFamily=Tahoma;fontSize=11;rounded=1;" parent="1" vertex="1">
          <mxGeometry x="1544" y="670" width="130" height="60" as="geometry" />
        </mxCell>
        <mxCell id="5ByG_nBHXtcjosvwfeg_-163" value="6.5&#xa;Dokumentacja&#xa;powdrożeniowa" style="fillColor=#b1ddf0;fontStyle=1;fontFamily=Tahoma;fontSize=11;rounded=1;" parent="1" vertex="1">
          <mxGeometry x="1800" y="760" width="130" height="60" as="geometry" />
        </mxCell>
        <mxCell id="5ByG_nBHXtcjosvwfeg_-164" value="6.6&#xa;Instrukcja&#xa;użytkowania" style="fillColor=#b1ddf0;fontStyle=1;fontFamily=Tahoma;fontSize=11;rounded=1;" parent="1" vertex="1">
          <mxGeometry x="1800" y="840" width="130" height="60" as="geometry" />
        </mxCell>
        <mxCell id="5ByG_nBHXtcjosvwfeg_-165" value="6.6.1&#xa;Instrukcja&#xa;nauczyciela" style="fillColor=#b1ddf0;fontStyle=1;fontFamily=Tahoma;fontSize=11;rounded=1;" parent="1" vertex="1">
          <mxGeometry x="1850" y="910" width="130" height="60" as="geometry" />
        </mxCell>
        <mxCell id="5ByG_nBHXtcjosvwfeg_-166" value="6.6.2&#xa;Instrukcja&#xa;ucznia" style="fillColor=#b1ddf0;fontStyle=1;fontFamily=Tahoma;fontSize=11;rounded=1;" parent="1" vertex="1">
          <mxGeometry x="1850" y="980" width="130" height="60" as="geometry" />
        </mxCell>
        <mxCell id="5ByG_nBHXtcjosvwfeg_-167" style="edgeStyle=elbowEdgeStyle;rounded=0;orthogonalLoop=1;jettySize=auto;html=1;exitX=0.25;exitY=1;exitDx=0;exitDy=0;entryX=0;entryY=0.5;entryDx=0;entryDy=0;strokeWidth=2;endArrow=none;endFill=0;" parent="1" source="5ByG_nBHXtcjosvwfeg_-153" target="5ByG_nBHXtcjosvwfeg_-154" edge="1">
          <mxGeometry relative="1" as="geometry">
            <mxPoint x="1740" y="492.5" as="sourcePoint" />
            <mxPoint x="1757.5" y="617.4999999999998" as="targetPoint" />
            <Array as="points">
              <mxPoint x="1788" y="450" />
              <mxPoint x="1750" y="510" />
              <mxPoint x="1740" y="540" />
              <mxPoint x="1740.5" y="582.5" />
              <mxPoint x="1695.5" y="442.5" />
              <mxPoint x="1668" y="537.5" />
              <mxPoint x="1630.5" y="562" />
              <mxPoint x="1572.5" y="612" />
              <mxPoint x="1593" y="632" />
              <mxPoint x="1603" y="592" />
              <mxPoint x="1567" y="602" />
            </Array>
          </mxGeometry>
        </mxCell>
        <mxCell id="5ByG_nBHXtcjosvwfeg_-168" value="" style="edgeStyle=elbowEdgeStyle;elbow=vertical;strokeWidth=2;fillColor=#b1ddf0;rounded=0;endArrow=none;endFill=0;exitX=0.5;exitY=1;exitDx=0;exitDy=0;entryX=0.5;entryY=0;entryDx=0;entryDy=0;" parent="1" source="2" target="5ByG_nBHXtcjosvwfeg_-132" edge="1">
          <mxGeometry x="347" y="225.5" width="100" height="100" as="geometry">
            <mxPoint x="862" y="275.4999999999999" as="sourcePoint" />
            <mxPoint x="1690" y="320" as="targetPoint" />
            <Array as="points">
              <mxPoint x="1540" y="300" />
            </Array>
          </mxGeometry>
        </mxCell>
        <mxCell id="5ByG_nBHXtcjosvwfeg_-169" value="" style="edgeStyle=elbowEdgeStyle;elbow=vertical;strokeWidth=2;fillColor=#b1ddf0;rounded=0;endArrow=none;endFill=0;exitX=0.5;exitY=1;exitDx=0;exitDy=0;entryX=0.5;entryY=0;entryDx=0;entryDy=0;" parent="1" source="2" target="5ByG_nBHXtcjosvwfeg_-153" edge="1">
          <mxGeometry x="357" y="235.5" width="100" height="100" as="geometry">
            <mxPoint x="872" y="285.4999999999999" as="sourcePoint" />
            <mxPoint x="2050" y="320" as="targetPoint" />
            <Array as="points">
              <mxPoint x="1520" y="300" />
            </Array>
          </mxGeometry>
        </mxCell>
        <mxCell id="5ByG_nBHXtcjosvwfeg_-170" value="" style="edgeStyle=elbowEdgeStyle;elbow=vertical;strokeWidth=2;fillColor=#b1ddf0;rounded=0;endArrow=none;endFill=0;entryX=0.5;entryY=0;entryDx=0;entryDy=0;exitX=0.5;exitY=1;exitDx=0;exitDy=0;" parent="1" source="2" target="5ByG_nBHXtcjosvwfeg_-130" edge="1">
          <mxGeometry x="347" y="225.5" width="100" height="100" as="geometry">
            <mxPoint x="862" y="275.4999999999999" as="sourcePoint" />
            <mxPoint x="1405" y="345.5" as="targetPoint" />
          </mxGeometry>
        </mxCell>
        <mxCell id="5ByG_nBHXtcjosvwfeg_-171" value="" style="edgeStyle=elbowEdgeStyle;elbow=vertical;strokeWidth=2;fillColor=#b1ddf0;rounded=0;endArrow=none;endFill=0;entryX=0.5;entryY=0;entryDx=0;entryDy=0;exitX=0.5;exitY=1;exitDx=0;exitDy=0;" parent="1" source="2" target="5ByG_nBHXtcjosvwfeg_-129" edge="1">
          <mxGeometry x="357" y="235.5" width="100" height="100" as="geometry">
            <mxPoint x="862" y="275.4999999999999" as="sourcePoint" />
            <mxPoint x="1115" y="345.5" as="targetPoint" />
          </mxGeometry>
        </mxCell>
        <mxCell id="5ByG_nBHXtcjosvwfeg_-172" style="edgeStyle=elbowEdgeStyle;rounded=0;orthogonalLoop=1;jettySize=auto;html=1;exitX=0.25;exitY=1;exitDx=0;exitDy=0;entryX=0;entryY=0.5;entryDx=0;entryDy=0;strokeWidth=2;endArrow=none;endFill=0;" parent="1" source="5ByG_nBHXtcjosvwfeg_-153" target="5ByG_nBHXtcjosvwfeg_-156" edge="1">
          <mxGeometry relative="1" as="geometry">
            <mxPoint x="1797.5" y="425.5" as="sourcePoint" />
            <mxPoint x="1810" y="480" as="targetPoint" />
            <Array as="points">
              <mxPoint x="1788" y="510" />
              <mxPoint x="1798" y="460" />
              <mxPoint x="1760" y="520" />
              <mxPoint x="1750" y="550" />
              <mxPoint x="1750.5" y="592.5" />
              <mxPoint x="1705.5" y="452.5" />
              <mxPoint x="1678" y="547.5" />
              <mxPoint x="1640.5" y="572" />
              <mxPoint x="1582.5" y="622" />
              <mxPoint x="1603" y="642" />
              <mxPoint x="1613" y="602" />
              <mxPoint x="1577" y="612" />
            </Array>
          </mxGeometry>
        </mxCell>
        <mxCell id="5ByG_nBHXtcjosvwfeg_-173" style="edgeStyle=elbowEdgeStyle;rounded=0;orthogonalLoop=1;jettySize=auto;html=1;exitX=0.25;exitY=1;exitDx=0;exitDy=0;entryX=0;entryY=0.5;entryDx=0;entryDy=0;strokeWidth=2;endArrow=none;endFill=0;" parent="1" source="5ByG_nBHXtcjosvwfeg_-153" target="5ByG_nBHXtcjosvwfeg_-155" edge="1">
          <mxGeometry relative="1" as="geometry">
            <mxPoint x="1797.5" y="425.5" as="sourcePoint" />
            <mxPoint x="1810" y="560" as="targetPoint" />
            <Array as="points">
              <mxPoint x="1788" y="580" />
              <mxPoint x="1800" y="580" />
              <mxPoint x="1790" y="580" />
              <mxPoint x="1780" y="590" />
              <mxPoint x="1798" y="520" />
              <mxPoint x="1808" y="470" />
              <mxPoint x="1770" y="530" />
              <mxPoint x="1760" y="560" />
              <mxPoint x="1760.5" y="602.5" />
              <mxPoint x="1715.5" y="462.5" />
              <mxPoint x="1688" y="557.5" />
              <mxPoint x="1650.5" y="582" />
              <mxPoint x="1592.5" y="632" />
              <mxPoint x="1613" y="652" />
              <mxPoint x="1623" y="612" />
              <mxPoint x="1587" y="622" />
            </Array>
          </mxGeometry>
        </mxCell>
        <mxCell id="5ByG_nBHXtcjosvwfeg_-174" style="edgeStyle=elbowEdgeStyle;rounded=0;orthogonalLoop=1;jettySize=auto;html=1;exitX=0.25;exitY=1;exitDx=0;exitDy=0;entryX=0;entryY=0.5;entryDx=0;entryDy=0;strokeWidth=2;endArrow=none;endFill=0;" parent="1" source="5ByG_nBHXtcjosvwfeg_-153" target="5ByG_nBHXtcjosvwfeg_-157" edge="1">
          <mxGeometry relative="1" as="geometry">
            <mxPoint x="1797.5" y="425.5" as="sourcePoint" />
            <mxPoint x="1810" y="640" as="targetPoint" />
            <Array as="points">
              <mxPoint x="1788" y="670" />
              <mxPoint x="1798" y="590" />
              <mxPoint x="1810" y="590" />
              <mxPoint x="1800" y="590" />
              <mxPoint x="1790" y="600" />
              <mxPoint x="1808" y="530" />
              <mxPoint x="1818" y="480" />
              <mxPoint x="1780" y="540" />
              <mxPoint x="1770" y="570" />
              <mxPoint x="1770.5" y="612.5" />
              <mxPoint x="1725.5" y="472.5" />
              <mxPoint x="1698" y="567.5" />
              <mxPoint x="1660.5" y="592" />
              <mxPoint x="1602.5" y="642" />
              <mxPoint x="1623" y="662" />
              <mxPoint x="1633" y="622" />
              <mxPoint x="1597" y="632" />
            </Array>
          </mxGeometry>
        </mxCell>
        <mxCell id="5ByG_nBHXtcjosvwfeg_-175" style="edgeStyle=elbowEdgeStyle;rounded=0;orthogonalLoop=1;jettySize=auto;html=1;exitX=0.25;exitY=1;exitDx=0;exitDy=0;entryX=0;entryY=0.5;entryDx=0;entryDy=0;strokeWidth=2;endArrow=none;endFill=0;" parent="1" source="5ByG_nBHXtcjosvwfeg_-153" target="5ByG_nBHXtcjosvwfeg_-163" edge="1">
          <mxGeometry relative="1" as="geometry">
            <mxPoint x="1797.5" y="425.5" as="sourcePoint" />
            <mxPoint x="1810" y="719.9999999999998" as="targetPoint" />
            <Array as="points">
              <mxPoint x="1788" y="670" />
              <mxPoint x="1798" y="680" />
              <mxPoint x="1808" y="600" />
              <mxPoint x="1820" y="600" />
              <mxPoint x="1810" y="600" />
              <mxPoint x="1800" y="610" />
              <mxPoint x="1818" y="540" />
              <mxPoint x="1828" y="490" />
              <mxPoint x="1790" y="550" />
              <mxPoint x="1780" y="580" />
              <mxPoint x="1780.5" y="622.5" />
              <mxPoint x="1735.5" y="482.5" />
              <mxPoint x="1708" y="577.5" />
              <mxPoint x="1670.5" y="602" />
              <mxPoint x="1612.5" y="652" />
              <mxPoint x="1633" y="672" />
              <mxPoint x="1643" y="632" />
              <mxPoint x="1607" y="642" />
            </Array>
          </mxGeometry>
        </mxCell>
        <mxCell id="5ByG_nBHXtcjosvwfeg_-176" style="edgeStyle=elbowEdgeStyle;rounded=0;orthogonalLoop=1;jettySize=auto;html=1;exitX=0.25;exitY=1;exitDx=0;exitDy=0;entryX=0;entryY=0.5;entryDx=0;entryDy=0;strokeWidth=2;endArrow=none;endFill=0;" parent="1" source="5ByG_nBHXtcjosvwfeg_-153" target="5ByG_nBHXtcjosvwfeg_-164" edge="1">
          <mxGeometry relative="1" as="geometry">
            <mxPoint x="1797.5" y="425.5" as="sourcePoint" />
            <mxPoint x="1810" y="799.9999999999998" as="targetPoint" />
            <Array as="points">
              <mxPoint x="1788" y="840" />
              <mxPoint x="1798" y="680" />
              <mxPoint x="1808" y="690" />
              <mxPoint x="1818" y="610" />
              <mxPoint x="1830" y="610" />
              <mxPoint x="1820" y="610" />
              <mxPoint x="1810" y="620" />
              <mxPoint x="1828" y="550" />
              <mxPoint x="1838" y="500" />
              <mxPoint x="1800" y="560" />
              <mxPoint x="1790" y="590" />
              <mxPoint x="1790.5" y="632.5" />
              <mxPoint x="1745.5" y="492.5" />
              <mxPoint x="1718" y="587.5" />
              <mxPoint x="1680.5" y="612" />
              <mxPoint x="1622.5" y="662" />
              <mxPoint x="1643" y="682" />
              <mxPoint x="1653" y="642" />
              <mxPoint x="1617" y="652" />
            </Array>
          </mxGeometry>
        </mxCell>
        <mxCell id="rvkrXnqIDvXesxYlfl5B-65" value="5.1&#xa;Odniesienie do&#xa;tematu pracy" style="fillColor=#b1ddf0;fontStyle=1;fontFamily=Tahoma;fontSize=11;rounded=1;" parent="1" vertex="1">
          <mxGeometry x="1490" y="440" width="130" height="60" as="geometry" />
        </mxCell>
        <mxCell id="rvkrXnqIDvXesxYlfl5B-66" value="4.1&#xa;Testy funkcjonalne" style="fillColor=#b1ddf0;fontStyle=1;fontFamily=Tahoma;fontSize=11;rounded=1;" parent="1" vertex="1">
          <mxGeometry x="1150" y="440" width="130" height="60" as="geometry" />
        </mxCell>
        <mxCell id="rvkrXnqIDvXesxYlfl5B-67" value="4.2&#xa;Testy&#xa;integracyjne" style="fillColor=#b1ddf0;fontStyle=1;fontFamily=Tahoma;fontSize=11;rounded=1;" parent="1" vertex="1">
          <mxGeometry x="1150" y="520" width="130" height="60" as="geometry" />
        </mxCell>
        <mxCell id="rvkrXnqIDvXesxYlfl5B-68" value="4.3&#xa;Testy&#xa;akceptacyjne" style="fillColor=#b1ddf0;fontStyle=1;fontFamily=Tahoma;fontSize=11;rounded=1;" parent="1" vertex="1">
          <mxGeometry x="1150" y="600" width="130" height="60" as="geometry" />
        </mxCell>
        <mxCell id="rvkrXnqIDvXesxYlfl5B-69" value="4.4&#xa;Testy&#xa;zabezpieczeń" style="fillColor=#b1ddf0;fontStyle=1;fontFamily=Tahoma;fontSize=11;rounded=1;" parent="1" vertex="1">
          <mxGeometry x="1150" y="680" width="130" height="60" as="geometry" />
        </mxCell>
        <mxCell id="rvkrXnqIDvXesxYlfl5B-70" value="4.5&#xa;Wprowadzenie&#xa;poprawek" style="fillColor=#b1ddf0;fontStyle=1;fontFamily=Tahoma;fontSize=11;rounded=1;" parent="1" vertex="1">
          <mxGeometry x="1150" y="760" width="130" height="60" as="geometry" />
        </mxCell>
        <mxCell id="rvkrXnqIDvXesxYlfl5B-72" style="edgeStyle=elbowEdgeStyle;rounded=0;orthogonalLoop=1;jettySize=auto;html=1;exitX=0.25;exitY=1;exitDx=0;exitDy=0;entryX=0;entryY=0.5;entryDx=0;entryDy=0;strokeWidth=2;endArrow=none;endFill=0;" parent="1" source="5ByG_nBHXtcjosvwfeg_-132" target="rvkrXnqIDvXesxYlfl5B-65" edge="1">
          <mxGeometry relative="1" as="geometry">
            <mxPoint x="1457.5" y="440" as="sourcePoint" />
            <mxPoint x="1470" y="494.5" as="targetPoint" />
            <Array as="points">
              <mxPoint x="1478" y="460" />
              <mxPoint x="1350" y="474.5" />
              <mxPoint x="1420" y="534.5" />
              <mxPoint x="1410" y="564.5" />
              <mxPoint x="1410.5" y="607" />
              <mxPoint x="1365.5" y="467" />
              <mxPoint x="1338" y="562" />
              <mxPoint x="1300.5" y="586.5" />
              <mxPoint x="1242.5" y="636.5" />
              <mxPoint x="1263" y="656.5" />
              <mxPoint x="1273" y="616.5" />
              <mxPoint x="1237" y="626.5" />
            </Array>
          </mxGeometry>
        </mxCell>
        <mxCell id="rvkrXnqIDvXesxYlfl5B-73" style="edgeStyle=elbowEdgeStyle;rounded=0;orthogonalLoop=1;jettySize=auto;html=1;exitX=0.25;exitY=1;exitDx=0;exitDy=0;entryX=0;entryY=0.5;entryDx=0;entryDy=0;strokeWidth=2;endArrow=none;endFill=0;" parent="1" source="5ByG_nBHXtcjosvwfeg_-164" target="5ByG_nBHXtcjosvwfeg_-165" edge="1">
          <mxGeometry relative="1" as="geometry">
            <mxPoint x="1727.5" y="710" as="sourcePoint" />
            <mxPoint x="1740" y="1164.5" as="targetPoint" />
            <Array as="points">
              <mxPoint x="1833" y="930" />
              <mxPoint x="1738" y="974.5" />
              <mxPoint x="1748" y="984.5" />
              <mxPoint x="1758" y="904.5" />
              <mxPoint x="1770" y="904.5" />
              <mxPoint x="1760" y="904.5" />
              <mxPoint x="1750" y="914.5" />
              <mxPoint x="1768" y="844.5" />
              <mxPoint x="1778" y="794.5" />
              <mxPoint x="1740" y="854.5" />
              <mxPoint x="1730" y="884.5" />
              <mxPoint x="1730.5" y="927" />
              <mxPoint x="1685.5" y="787" />
              <mxPoint x="1658" y="882" />
              <mxPoint x="1620.5" y="906.5" />
              <mxPoint x="1562.5" y="956.5" />
              <mxPoint x="1583" y="976.5" />
              <mxPoint x="1593" y="936.5" />
              <mxPoint x="1557" y="946.5" />
            </Array>
          </mxGeometry>
        </mxCell>
        <mxCell id="rvkrXnqIDvXesxYlfl5B-74" style="edgeStyle=elbowEdgeStyle;rounded=0;orthogonalLoop=1;jettySize=auto;html=1;exitX=0.25;exitY=1;exitDx=0;exitDy=0;entryX=0;entryY=0.5;entryDx=0;entryDy=0;strokeWidth=2;endArrow=none;endFill=0;" parent="1" source="5ByG_nBHXtcjosvwfeg_-164" target="5ByG_nBHXtcjosvwfeg_-166" edge="1">
          <mxGeometry relative="1" as="geometry">
            <mxPoint x="1810" y="960" as="sourcePoint" />
            <mxPoint x="1827.5" y="1000" as="targetPoint" />
            <Array as="points">
              <mxPoint x="1833" y="980" />
              <mxPoint x="1810.5" y="990" />
              <mxPoint x="1715.5" y="1034.5" />
              <mxPoint x="1725.5" y="1044.5" />
              <mxPoint x="1735.5" y="964.5" />
              <mxPoint x="1747.5" y="964.5" />
              <mxPoint x="1737.5" y="964.5" />
              <mxPoint x="1727.5" y="974.5" />
              <mxPoint x="1745.5" y="904.5" />
              <mxPoint x="1755.5" y="854.5" />
              <mxPoint x="1717.5" y="914.5" />
              <mxPoint x="1707.5" y="944.5" />
              <mxPoint x="1708" y="987" />
              <mxPoint x="1663" y="847" />
              <mxPoint x="1635.5" y="942" />
              <mxPoint x="1598" y="966.5" />
              <mxPoint x="1540" y="1016.5" />
              <mxPoint x="1560.5" y="1036.5" />
              <mxPoint x="1570.5" y="996.5" />
              <mxPoint x="1534.5" y="1006.5" />
            </Array>
          </mxGeometry>
        </mxCell>
        <mxCell id="rvkrXnqIDvXesxYlfl5B-75" style="edgeStyle=elbowEdgeStyle;rounded=0;orthogonalLoop=1;jettySize=auto;html=1;exitX=0.25;exitY=1;exitDx=0;exitDy=0;entryX=0;entryY=0.5;entryDx=0;entryDy=0;strokeWidth=2;endArrow=none;endFill=0;" parent="1" source="5ByG_nBHXtcjosvwfeg_-130" target="rvkrXnqIDvXesxYlfl5B-66" edge="1">
          <mxGeometry relative="1" as="geometry">
            <mxPoint x="1127.5" y="465.5" as="sourcePoint" />
            <mxPoint x="1140" y="520.0000000000001" as="targetPoint" />
            <Array as="points">
              <mxPoint x="1138" y="440" />
              <mxPoint x="1020" y="500" />
              <mxPoint x="1090" y="560" />
              <mxPoint x="1080" y="590" />
              <mxPoint x="1080.5" y="632.5" />
              <mxPoint x="1035.5" y="492.5" />
              <mxPoint x="1008" y="587.5" />
              <mxPoint x="970.5" y="612" />
              <mxPoint x="912.5" y="662" />
              <mxPoint x="933" y="682" />
              <mxPoint x="943" y="642" />
              <mxPoint x="907" y="652" />
            </Array>
          </mxGeometry>
        </mxCell>
        <mxCell id="rvkrXnqIDvXesxYlfl5B-76" style="edgeStyle=elbowEdgeStyle;rounded=0;orthogonalLoop=1;jettySize=auto;html=1;exitX=0.25;exitY=1;exitDx=0;exitDy=0;entryX=0;entryY=0.5;entryDx=0;entryDy=0;strokeWidth=2;endArrow=none;endFill=0;" parent="1" source="5ByG_nBHXtcjosvwfeg_-132" target="5ByG_nBHXtcjosvwfeg_-160" edge="1">
          <mxGeometry relative="1" as="geometry">
            <mxPoint x="1487.5" y="425.5" as="sourcePoint" />
            <mxPoint x="1500" y="480" as="targetPoint" />
            <Array as="points">
              <mxPoint x="1478" y="510" />
              <mxPoint x="1488" y="470" />
              <mxPoint x="1360" y="484.5" />
              <mxPoint x="1430" y="544.5" />
              <mxPoint x="1420" y="574.5" />
              <mxPoint x="1420.5" y="617" />
              <mxPoint x="1375.5" y="477" />
              <mxPoint x="1348" y="572" />
              <mxPoint x="1310.5" y="596.5" />
              <mxPoint x="1252.5" y="646.5" />
              <mxPoint x="1273" y="666.5" />
              <mxPoint x="1283" y="626.5" />
              <mxPoint x="1247" y="636.5" />
            </Array>
          </mxGeometry>
        </mxCell>
        <mxCell id="rvkrXnqIDvXesxYlfl5B-77" style="edgeStyle=elbowEdgeStyle;rounded=0;orthogonalLoop=1;jettySize=auto;html=1;exitX=0.25;exitY=1;exitDx=0;exitDy=0;entryX=0;entryY=0.5;entryDx=0;entryDy=0;strokeWidth=2;endArrow=none;endFill=0;" parent="1" source="5ByG_nBHXtcjosvwfeg_-160" target="5ByG_nBHXtcjosvwfeg_-161" edge="1">
          <mxGeometry relative="1" as="geometry">
            <mxPoint x="1477.5" y="585.5" as="sourcePoint" />
            <mxPoint x="1490" y="720" as="targetPoint" />
            <Array as="points">
              <mxPoint x="1523" y="620" />
              <mxPoint x="1478" y="680" />
              <mxPoint x="1488" y="640" />
              <mxPoint x="1360" y="654.5" />
              <mxPoint x="1430" y="714.5" />
              <mxPoint x="1420" y="744.5" />
              <mxPoint x="1420.5" y="787" />
              <mxPoint x="1375.5" y="647" />
              <mxPoint x="1348" y="742" />
              <mxPoint x="1310.5" y="766.5" />
              <mxPoint x="1252.5" y="816.5" />
              <mxPoint x="1273" y="836.5" />
              <mxPoint x="1283" y="796.5" />
              <mxPoint x="1247" y="806.5" />
            </Array>
          </mxGeometry>
        </mxCell>
        <mxCell id="rvkrXnqIDvXesxYlfl5B-78" style="edgeStyle=elbowEdgeStyle;rounded=0;orthogonalLoop=1;jettySize=auto;html=1;exitX=0.25;exitY=1;exitDx=0;exitDy=0;entryX=0;entryY=0.5;entryDx=0;entryDy=0;strokeWidth=2;endArrow=none;endFill=0;" parent="1" source="5ByG_nBHXtcjosvwfeg_-160" target="5ByG_nBHXtcjosvwfeg_-162" edge="1">
          <mxGeometry relative="1" as="geometry">
            <mxPoint x="1532.5" y="590" as="sourcePoint" />
            <mxPoint x="1554" y="640" as="targetPoint" />
            <Array as="points">
              <mxPoint x="1523" y="670" />
              <mxPoint x="1533" y="630" />
              <mxPoint x="1488" y="690" />
              <mxPoint x="1498" y="650" />
              <mxPoint x="1370" y="664.5" />
              <mxPoint x="1440" y="724.5" />
              <mxPoint x="1430" y="754.5" />
              <mxPoint x="1430.5" y="797" />
              <mxPoint x="1385.5" y="657" />
              <mxPoint x="1358" y="752" />
              <mxPoint x="1320.5" y="776.5" />
              <mxPoint x="1262.5" y="826.5" />
              <mxPoint x="1283" y="846.5" />
              <mxPoint x="1293" y="806.5" />
              <mxPoint x="1257" y="816.5" />
            </Array>
          </mxGeometry>
        </mxCell>
        <mxCell id="rvkrXnqIDvXesxYlfl5B-79" style="edgeStyle=elbowEdgeStyle;rounded=0;orthogonalLoop=1;jettySize=auto;html=1;exitX=0.25;exitY=1;exitDx=0;exitDy=0;entryX=0;entryY=0.5;entryDx=0;entryDy=0;strokeWidth=2;endArrow=none;endFill=0;" parent="1" source="5ByG_nBHXtcjosvwfeg_-160" target="5ByG_nBHXtcjosvwfeg_-159" edge="1">
          <mxGeometry relative="1" as="geometry">
            <mxPoint x="1532.5" y="590" as="sourcePoint" />
            <mxPoint x="1554" y="705" as="targetPoint" />
            <Array as="points">
              <mxPoint x="1523" y="720" />
              <mxPoint x="1533" y="680" />
              <mxPoint x="1543" y="640" />
              <mxPoint x="1498" y="700" />
              <mxPoint x="1508" y="660" />
              <mxPoint x="1380" y="674.5" />
              <mxPoint x="1450" y="734.5" />
              <mxPoint x="1440" y="764.5" />
              <mxPoint x="1440.5" y="807" />
              <mxPoint x="1395.5" y="667" />
              <mxPoint x="1368" y="762" />
              <mxPoint x="1330.5" y="786.5" />
              <mxPoint x="1272.5" y="836.5" />
              <mxPoint x="1293" y="856.5" />
              <mxPoint x="1303" y="816.5" />
              <mxPoint x="1267" y="826.5" />
            </Array>
          </mxGeometry>
        </mxCell>
        <mxCell id="rvkrXnqIDvXesxYlfl5B-80" style="edgeStyle=elbowEdgeStyle;rounded=0;orthogonalLoop=1;jettySize=auto;html=1;exitX=0.25;exitY=1;exitDx=0;exitDy=0;entryX=0;entryY=0.5;entryDx=0;entryDy=0;strokeWidth=2;endArrow=none;endFill=0;" parent="1" source="5ByG_nBHXtcjosvwfeg_-132" target="5ByG_nBHXtcjosvwfeg_-158" edge="1">
          <mxGeometry relative="1" as="geometry">
            <mxPoint x="1430" y="620" as="sourcePoint" />
            <mxPoint x="1451.5" y="800" as="targetPoint" />
            <Array as="points">
              <mxPoint x="1478" y="570" />
              <mxPoint x="1430.5" y="760" />
              <mxPoint x="1440.5" y="720" />
              <mxPoint x="1450.5" y="680" />
              <mxPoint x="1405.5" y="740" />
              <mxPoint x="1415.5" y="700" />
              <mxPoint x="1287.5" y="714.5" />
              <mxPoint x="1357.5" y="774.5" />
              <mxPoint x="1347.5" y="804.5" />
              <mxPoint x="1348" y="847" />
              <mxPoint x="1303" y="707" />
              <mxPoint x="1275.5" y="802" />
              <mxPoint x="1238" y="826.5" />
              <mxPoint x="1180" y="876.5" />
              <mxPoint x="1200.5" y="896.5" />
              <mxPoint x="1210.5" y="856.5" />
              <mxPoint x="1174.5" y="866.5" />
            </Array>
          </mxGeometry>
        </mxCell>
        <mxCell id="rvkrXnqIDvXesxYlfl5B-81" style="edgeStyle=elbowEdgeStyle;rounded=0;orthogonalLoop=1;jettySize=auto;html=1;exitX=0.25;exitY=1;exitDx=0;exitDy=0;entryX=0;entryY=0.5;entryDx=0;entryDy=0;strokeWidth=2;endArrow=none;endFill=0;" parent="1" source="5ByG_nBHXtcjosvwfeg_-130" target="rvkrXnqIDvXesxYlfl5B-67" edge="1">
          <mxGeometry relative="1" as="geometry">
            <mxPoint x="1147.5" y="425.5" as="sourcePoint" />
            <mxPoint x="1160" y="480" as="targetPoint" />
            <Array as="points">
              <mxPoint x="1138" y="510" />
              <mxPoint x="1148" y="450" />
              <mxPoint x="1030" y="510" />
              <mxPoint x="1100" y="570" />
              <mxPoint x="1090" y="600" />
              <mxPoint x="1090.5" y="642.5" />
              <mxPoint x="1045.5" y="502.5" />
              <mxPoint x="1018" y="597.5" />
              <mxPoint x="980.5" y="622" />
              <mxPoint x="922.5" y="672" />
              <mxPoint x="943" y="692" />
              <mxPoint x="953" y="652" />
              <mxPoint x="917" y="662" />
            </Array>
          </mxGeometry>
        </mxCell>
        <mxCell id="rvkrXnqIDvXesxYlfl5B-82" style="edgeStyle=elbowEdgeStyle;rounded=0;orthogonalLoop=1;jettySize=auto;html=1;exitX=0.25;exitY=1;exitDx=0;exitDy=0;entryX=0;entryY=0.5;entryDx=0;entryDy=0;strokeWidth=2;endArrow=none;endFill=0;" parent="1" source="5ByG_nBHXtcjosvwfeg_-130" target="rvkrXnqIDvXesxYlfl5B-68" edge="1">
          <mxGeometry relative="1" as="geometry">
            <mxPoint x="1147.5" y="425.5" as="sourcePoint" />
            <mxPoint x="1160" y="560" as="targetPoint" />
            <Array as="points">
              <mxPoint x="1138" y="580" />
              <mxPoint x="1148" y="520" />
              <mxPoint x="1158" y="460" />
              <mxPoint x="1040" y="520" />
              <mxPoint x="1110" y="580" />
              <mxPoint x="1100" y="610" />
              <mxPoint x="1100.5" y="652.5" />
              <mxPoint x="1055.5" y="512.5" />
              <mxPoint x="1028" y="607.5" />
              <mxPoint x="990.5" y="632" />
              <mxPoint x="932.5" y="682" />
              <mxPoint x="953" y="702" />
              <mxPoint x="963" y="662" />
              <mxPoint x="927" y="672" />
            </Array>
          </mxGeometry>
        </mxCell>
        <mxCell id="rvkrXnqIDvXesxYlfl5B-83" style="edgeStyle=elbowEdgeStyle;rounded=0;orthogonalLoop=1;jettySize=auto;html=1;exitX=0.25;exitY=1;exitDx=0;exitDy=0;entryX=0;entryY=0.5;entryDx=0;entryDy=0;strokeWidth=2;endArrow=none;endFill=0;" parent="1" source="5ByG_nBHXtcjosvwfeg_-130" target="rvkrXnqIDvXesxYlfl5B-69" edge="1">
          <mxGeometry relative="1" as="geometry">
            <mxPoint x="1147.5" y="425.5" as="sourcePoint" />
            <mxPoint x="1160" y="640" as="targetPoint" />
            <Array as="points">
              <mxPoint x="1138" y="510" />
              <mxPoint x="1148" y="590" />
              <mxPoint x="1158" y="530" />
              <mxPoint x="1168" y="470" />
              <mxPoint x="1050" y="530" />
              <mxPoint x="1120" y="590" />
              <mxPoint x="1110" y="620" />
              <mxPoint x="1110.5" y="662.5" />
              <mxPoint x="1065.5" y="522.5" />
              <mxPoint x="1038" y="617.5" />
              <mxPoint x="1000.5" y="642" />
              <mxPoint x="942.5" y="692" />
              <mxPoint x="963" y="712" />
              <mxPoint x="973" y="672" />
              <mxPoint x="937" y="682" />
            </Array>
          </mxGeometry>
        </mxCell>
        <mxCell id="rvkrXnqIDvXesxYlfl5B-84" style="edgeStyle=elbowEdgeStyle;rounded=0;orthogonalLoop=1;jettySize=auto;html=1;exitX=0.25;exitY=1;exitDx=0;exitDy=0;entryX=0;entryY=0.5;entryDx=0;entryDy=0;strokeWidth=2;endArrow=none;endFill=0;" parent="1" source="5ByG_nBHXtcjosvwfeg_-130" target="rvkrXnqIDvXesxYlfl5B-70" edge="1">
          <mxGeometry relative="1" as="geometry">
            <mxPoint x="1147.5" y="425.5" as="sourcePoint" />
            <mxPoint x="1160" y="720" as="targetPoint" />
            <Array as="points">
              <mxPoint x="1138" y="740" />
              <mxPoint x="1148" y="520" />
              <mxPoint x="1158" y="600" />
              <mxPoint x="1168" y="540" />
              <mxPoint x="1178" y="480" />
              <mxPoint x="1060" y="540" />
              <mxPoint x="1130" y="600" />
              <mxPoint x="1120" y="630" />
              <mxPoint x="1120.5" y="672.5" />
              <mxPoint x="1075.5" y="532.5" />
              <mxPoint x="1048" y="627.5" />
              <mxPoint x="1010.5" y="652" />
              <mxPoint x="952.5" y="702" />
              <mxPoint x="973" y="722" />
              <mxPoint x="983" y="682" />
              <mxPoint x="947" y="692" />
            </Array>
          </mxGeometry>
        </mxCell>
        <mxCell id="rvkrXnqIDvXesxYlfl5B-85" value="3.1&#xa;Implementacja&#xa;Bazy danych" style="fillColor=#b1ddf0;fontStyle=1;fontFamily=Tahoma;fontSize=11;rounded=1;" parent="1" vertex="1">
          <mxGeometry x="817" y="440" width="130" height="60" as="geometry" />
        </mxCell>
        <mxCell id="rvkrXnqIDvXesxYlfl5B-86" value="3.3&#xa;Implementacja&#xa;modułów&#xa;systemu" style="fillColor=#b1ddf0;fontStyle=1;fontFamily=Tahoma;fontSize=11;rounded=1;" parent="1" vertex="1">
          <mxGeometry x="817" y="740" width="130" height="60" as="geometry" />
        </mxCell>
        <mxCell id="rvkrXnqIDvXesxYlfl5B-87" value="3.2&#xa;Przygotowanie&#xa;IDE" style="fillColor=#b1ddf0;fontStyle=1;fontFamily=Tahoma;fontSize=11;rounded=1;" parent="1" vertex="1">
          <mxGeometry x="817" y="520" width="130" height="60" as="geometry" />
        </mxCell>
        <mxCell id="rvkrXnqIDvXesxYlfl5B-88" value="3.2.1&#xa;Konfiguracja IDE&#xa;dla aplikacji&#xa;webowej" style="fillColor=#b1ddf0;fontStyle=1;fontFamily=Tahoma;fontSize=11;rounded=1;" parent="1" vertex="1">
          <mxGeometry x="860" y="590" width="130" height="60" as="geometry" />
        </mxCell>
        <mxCell id="rvkrXnqIDvXesxYlfl5B-90" style="edgeStyle=elbowEdgeStyle;rounded=0;orthogonalLoop=1;jettySize=auto;html=1;exitX=0.25;exitY=1;exitDx=0;exitDy=0;entryX=0;entryY=0.5;entryDx=0;entryDy=0;strokeWidth=2;endArrow=none;endFill=0;" parent="1" source="5ByG_nBHXtcjosvwfeg_-129" target="rvkrXnqIDvXesxYlfl5B-85" edge="1">
          <mxGeometry relative="1" as="geometry">
            <mxPoint x="780" y="442.75" as="sourcePoint" />
            <mxPoint x="792.5" y="497.25" as="targetPoint" />
            <Array as="points">
              <mxPoint x="805" y="460" />
              <mxPoint x="780.5" y="467.25" />
              <mxPoint x="662.5" y="527.25" />
              <mxPoint x="732.5" y="587.25" />
              <mxPoint x="722.5" y="617.25" />
              <mxPoint x="723" y="659.75" />
              <mxPoint x="678" y="519.75" />
              <mxPoint x="650.5" y="614.75" />
              <mxPoint x="613" y="639.25" />
              <mxPoint x="555" y="689.25" />
              <mxPoint x="575.5" y="709.25" />
              <mxPoint x="585.5" y="669.25" />
              <mxPoint x="549.5" y="679.25" />
            </Array>
          </mxGeometry>
        </mxCell>
        <mxCell id="rvkrXnqIDvXesxYlfl5B-91" style="edgeStyle=elbowEdgeStyle;rounded=0;orthogonalLoop=1;jettySize=auto;html=1;exitX=0.25;exitY=1;exitDx=0;exitDy=0;entryX=0;entryY=0.5;entryDx=0;entryDy=0;strokeWidth=2;endArrow=none;endFill=0;" parent="1" source="5ByG_nBHXtcjosvwfeg_-129" target="rvkrXnqIDvXesxYlfl5B-87" edge="1">
          <mxGeometry relative="1" as="geometry">
            <mxPoint x="814.5" y="425.5" as="sourcePoint" />
            <mxPoint x="827" y="480" as="targetPoint" />
            <Array as="points">
              <mxPoint x="805" y="510" />
              <mxPoint x="790.5" y="477.25" />
              <mxPoint x="672.5" y="537.25" />
              <mxPoint x="742.5" y="597.25" />
              <mxPoint x="732.5" y="627.25" />
              <mxPoint x="733" y="669.75" />
              <mxPoint x="688" y="529.75" />
              <mxPoint x="660.5" y="624.75" />
              <mxPoint x="623" y="649.25" />
              <mxPoint x="565" y="699.25" />
              <mxPoint x="585.5" y="719.25" />
              <mxPoint x="595.5" y="679.25" />
              <mxPoint x="559.5" y="689.25" />
            </Array>
          </mxGeometry>
        </mxCell>
        <mxCell id="rvkrXnqIDvXesxYlfl5B-93" value="3.4&#xa;Wdrożenie&#xa;systemu" style="fillColor=#b1ddf0;fontStyle=1;fontFamily=Tahoma;fontSize=11;rounded=1;" parent="1" vertex="1">
          <mxGeometry x="817" y="3010" width="130" height="60" as="geometry" />
        </mxCell>
        <mxCell id="rvkrXnqIDvXesxYlfl5B-95" value="Wybór&#xa;hostingu" style="fillColor=#b1ddf0;fontStyle=1;fontFamily=Tahoma;fontSize=11;rounded=1;" parent="1" vertex="1">
          <mxGeometry x="870" y="3080" width="130" height="60" as="geometry" />
        </mxCell>
        <mxCell id="rvkrXnqIDvXesxYlfl5B-96" value="Konfiguracja&#xa;bazy danych" style="fillColor=#b1ddf0;fontStyle=1;fontFamily=Tahoma;fontSize=11;rounded=1;" parent="1" vertex="1">
          <mxGeometry x="870" y="3150" width="130" height="60" as="geometry" />
        </mxCell>
        <mxCell id="rvkrXnqIDvXesxYlfl5B-97" value="Przeniesienie&#xa;danych" style="fillColor=#b1ddf0;fontStyle=1;fontFamily=Tahoma;fontSize=11;rounded=1;" parent="1" vertex="1">
          <mxGeometry x="870" y="3221.25" width="130" height="60" as="geometry" />
        </mxCell>
        <mxCell id="rvkrXnqIDvXesxYlfl5B-98" value="Back-end" style="fillColor=#b1ddf0;fontStyle=1;fontFamily=Tahoma;fontSize=11;rounded=1;" parent="1" vertex="1">
          <mxGeometry x="870" y="810" width="130" height="60" as="geometry" />
        </mxCell>
        <mxCell id="rvkrXnqIDvXesxYlfl5B-99" value="Połączenie&#xa;z&#xa;bazą danych" style="fillColor=#b1ddf0;fontStyle=1;fontFamily=Tahoma;fontSize=11;rounded=1;" parent="1" vertex="1">
          <mxGeometry x="923" y="879" width="130" height="60" as="geometry" />
        </mxCell>
        <mxCell id="rvkrXnqIDvXesxYlfl5B-100" value="Bezpieczeństwo" style="fillColor=#b1ddf0;fontStyle=1;fontFamily=Tahoma;fontSize=11;rounded=1;" parent="1" vertex="1">
          <mxGeometry x="923" y="949" width="130" height="60" as="geometry" />
        </mxCell>
        <mxCell id="rvkrXnqIDvXesxYlfl5B-101" value="3.3.4&#xa;Front-end" style="fillColor=#b1ddf0;fontStyle=1;fontFamily=Tahoma;fontSize=11;rounded=1;" parent="1" vertex="1">
          <mxGeometry x="860" y="2860" width="130" height="60" as="geometry" />
        </mxCell>
        <mxCell id="rvkrXnqIDvXesxYlfl5B-102" value="Obsługa konta&#xa;użytkownika" style="fillColor=#b1ddf0;fontStyle=1;fontFamily=Tahoma;fontSize=11;rounded=1;" parent="1" vertex="1">
          <mxGeometry x="923" y="1020" width="130" height="60" as="geometry" />
        </mxCell>
        <mxCell id="rvkrXnqIDvXesxYlfl5B-103" value="Logowanie" style="fillColor=#b1ddf0;fontStyle=1;fontFamily=Tahoma;fontSize=11;rounded=1;" parent="1" vertex="1">
          <mxGeometry x="980" y="1090.5" width="130" height="60" as="geometry" />
        </mxCell>
        <mxCell id="rvkrXnqIDvXesxYlfl5B-104" value="Rejestracja" style="fillColor=#b1ddf0;fontStyle=1;fontFamily=Tahoma;fontSize=11;rounded=1;" parent="1" vertex="1">
          <mxGeometry x="980" y="1159.5" width="130" height="60" as="geometry" />
        </mxCell>
        <mxCell id="rvkrXnqIDvXesxYlfl5B-105" value="Usuwanie konta" style="fillColor=#b1ddf0;fontStyle=1;fontFamily=Tahoma;fontSize=11;rounded=1;" parent="1" vertex="1">
          <mxGeometry x="980" y="1229.5" width="130" height="60" as="geometry" />
        </mxCell>
        <mxCell id="g8QcqB4jp_ApOANaONlV-65" value="3.2.2&#xa;Konfiguracja IDE&#xa;dla aplikacji&#xa;mobilnej" style="fillColor=#b1ddf0;fontStyle=1;fontFamily=Tahoma;fontSize=11;rounded=1;" parent="1" vertex="1">
          <mxGeometry x="860" y="660" width="130" height="60" as="geometry" />
        </mxCell>
        <mxCell id="g8QcqB4jp_ApOANaONlV-67" style="edgeStyle=elbowEdgeStyle;rounded=0;orthogonalLoop=1;jettySize=auto;html=1;entryX=0;entryY=0.5;entryDx=0;entryDy=0;strokeWidth=2;endArrow=none;endFill=0;exitX=0.25;exitY=1;exitDx=0;exitDy=0;" parent="1" source="rvkrXnqIDvXesxYlfl5B-87" target="rvkrXnqIDvXesxYlfl5B-88" edge="1">
          <mxGeometry relative="1" as="geometry">
            <mxPoint x="840" y="610" as="sourcePoint" />
            <mxPoint x="802.5" y="747.25" as="targetPoint" />
            <Array as="points">
              <mxPoint x="850" y="600" />
              <mxPoint x="776" y="674.5" />
              <mxPoint x="658" y="734.5" />
              <mxPoint x="728" y="794.5" />
              <mxPoint x="718" y="824.5" />
              <mxPoint x="718.5" y="867" />
              <mxPoint x="673.5" y="727" />
              <mxPoint x="646" y="822" />
              <mxPoint x="608.5" y="846.5" />
              <mxPoint x="550.5" y="896.5" />
              <mxPoint x="571" y="916.5" />
              <mxPoint x="581" y="876.5" />
              <mxPoint x="545" y="886.5" />
            </Array>
          </mxGeometry>
        </mxCell>
        <mxCell id="g8QcqB4jp_ApOANaONlV-68" style="edgeStyle=elbowEdgeStyle;rounded=0;orthogonalLoop=1;jettySize=auto;html=1;entryX=0;entryY=0.5;entryDx=0;entryDy=0;strokeWidth=2;endArrow=none;endFill=0;exitX=0.25;exitY=1;exitDx=0;exitDy=0;" parent="1" source="rvkrXnqIDvXesxYlfl5B-87" target="g8QcqB4jp_ApOANaONlV-65" edge="1">
          <mxGeometry relative="1" as="geometry">
            <mxPoint x="859.5" y="590" as="sourcePoint" />
            <mxPoint x="880" y="630" as="targetPoint" />
            <Array as="points">
              <mxPoint x="850" y="700" />
              <mxPoint x="860" y="610" />
              <mxPoint x="786" y="684.5" />
              <mxPoint x="668" y="744.5" />
              <mxPoint x="738" y="804.5" />
              <mxPoint x="728" y="834.5" />
              <mxPoint x="728.5" y="877" />
              <mxPoint x="683.5" y="737" />
              <mxPoint x="656" y="832" />
              <mxPoint x="618.5" y="856.5" />
              <mxPoint x="560.5" y="906.5" />
              <mxPoint x="581" y="926.5" />
              <mxPoint x="591" y="886.5" />
              <mxPoint x="555" y="896.5" />
            </Array>
          </mxGeometry>
        </mxCell>
        <mxCell id="g8QcqB4jp_ApOANaONlV-71" style="edgeStyle=elbowEdgeStyle;rounded=0;orthogonalLoop=1;jettySize=auto;html=1;exitX=0.25;exitY=1;exitDx=0;exitDy=0;entryX=0;entryY=0.5;entryDx=0;entryDy=0;strokeWidth=2;endArrow=none;endFill=0;" parent="1" source="5ByG_nBHXtcjosvwfeg_-129" target="rvkrXnqIDvXesxYlfl5B-86" edge="1">
          <mxGeometry relative="1" as="geometry">
            <mxPoint x="814.5" y="425.5" as="sourcePoint" />
            <mxPoint x="827" y="560" as="targetPoint" />
            <Array as="points">
              <mxPoint x="805" y="630" />
              <mxPoint x="815" y="520" />
              <mxPoint x="800.5" y="487.25" />
              <mxPoint x="682.5" y="547.25" />
              <mxPoint x="752.5" y="607.25" />
              <mxPoint x="742.5" y="637.25" />
              <mxPoint x="743" y="679.75" />
              <mxPoint x="698" y="539.75" />
              <mxPoint x="670.5" y="634.75" />
              <mxPoint x="633" y="659.25" />
              <mxPoint x="575" y="709.25" />
              <mxPoint x="595.5" y="729.25" />
              <mxPoint x="605.5" y="689.25" />
              <mxPoint x="569.5" y="699.25" />
            </Array>
          </mxGeometry>
        </mxCell>
        <mxCell id="g8QcqB4jp_ApOANaONlV-73" style="edgeStyle=elbowEdgeStyle;rounded=0;orthogonalLoop=1;jettySize=auto;html=1;exitX=0.25;exitY=1;exitDx=0;exitDy=0;entryX=0;entryY=0.5;entryDx=0;entryDy=0;strokeWidth=2;endArrow=none;endFill=0;" parent="1" source="rvkrXnqIDvXesxYlfl5B-86" target="rvkrXnqIDvXesxYlfl5B-98" edge="1">
          <mxGeometry relative="1" as="geometry">
            <mxPoint x="814.5" y="275.5" as="sourcePoint" />
            <mxPoint x="827" y="1300" as="targetPoint" />
            <Array as="points">
              <mxPoint x="850" y="820" />
              <mxPoint x="805" y="1340" />
              <mxPoint x="815" y="900" />
              <mxPoint x="825" y="500" />
              <mxPoint x="835" y="390" />
              <mxPoint x="820.5" y="357.25" />
              <mxPoint x="702.5" y="417.25" />
              <mxPoint x="772.5" y="477.25" />
              <mxPoint x="762.5" y="507.25" />
              <mxPoint x="763" y="549.75" />
              <mxPoint x="718" y="409.75" />
              <mxPoint x="690.5" y="504.75" />
              <mxPoint x="653" y="529.25" />
              <mxPoint x="595" y="579.25" />
              <mxPoint x="615.5" y="599.25" />
              <mxPoint x="625.5" y="559.25" />
              <mxPoint x="589.5" y="569.25" />
            </Array>
          </mxGeometry>
        </mxCell>
        <mxCell id="g8QcqB4jp_ApOANaONlV-74" style="edgeStyle=elbowEdgeStyle;rounded=0;orthogonalLoop=1;jettySize=auto;html=1;exitX=0.25;exitY=1;exitDx=0;exitDy=0;entryX=0;entryY=0.5;entryDx=0;entryDy=0;strokeWidth=2;endArrow=none;endFill=0;" parent="1" source="5ByG_nBHXtcjosvwfeg_-129" target="rvkrXnqIDvXesxYlfl5B-93" edge="1">
          <mxGeometry relative="1" as="geometry">
            <mxPoint x="814.5" y="425.5" as="sourcePoint" />
            <mxPoint x="827" y="1531" as="targetPoint" />
            <Array as="points">
              <mxPoint x="805" y="840" />
              <mxPoint x="850" y="2900" />
              <mxPoint x="840" y="2880" />
              <mxPoint x="852" y="2930" />
              <mxPoint x="805" y="3110" />
              <mxPoint x="805" y="1090" />
              <mxPoint x="805" y="1050" />
              <mxPoint x="850" y="1090" />
              <mxPoint x="805" y="1690" />
              <mxPoint x="815" y="1500" />
              <mxPoint x="825" y="1060" />
              <mxPoint x="835" y="660" />
              <mxPoint x="845" y="550" />
              <mxPoint x="830.5" y="517.25" />
              <mxPoint x="712.5" y="577.25" />
              <mxPoint x="782.5" y="637.25" />
              <mxPoint x="772.5" y="667.25" />
              <mxPoint x="773" y="709.75" />
              <mxPoint x="728" y="569.75" />
              <mxPoint x="700.5" y="664.75" />
              <mxPoint x="663" y="689.25" />
              <mxPoint x="605" y="739.25" />
              <mxPoint x="625.5" y="759.25" />
              <mxPoint x="635.5" y="719.25" />
              <mxPoint x="599.5" y="729.25" />
            </Array>
          </mxGeometry>
        </mxCell>
        <mxCell id="g8QcqB4jp_ApOANaONlV-75" style="edgeStyle=elbowEdgeStyle;rounded=0;orthogonalLoop=1;jettySize=auto;html=1;exitX=0.25;exitY=1;exitDx=0;exitDy=0;entryX=0;entryY=0.5;entryDx=0;entryDy=0;strokeWidth=2;endArrow=none;endFill=0;" parent="1" source="rvkrXnqIDvXesxYlfl5B-98" target="rvkrXnqIDvXesxYlfl5B-99" edge="1">
          <mxGeometry relative="1" as="geometry">
            <mxPoint x="883" y="899" as="sourcePoint" />
            <mxPoint x="900.5" y="1009" as="targetPoint" />
            <Array as="points">
              <mxPoint x="903" y="889" />
              <mxPoint x="883.5" y="969" />
              <mxPoint x="811" y="949" />
              <mxPoint x="831" y="919" />
              <mxPoint x="808.5" y="983" />
              <mxPoint x="736" y="1013" />
              <mxPoint x="691" y="873" />
              <mxPoint x="663.5" y="968" />
              <mxPoint x="626" y="992.5" />
              <mxPoint x="568" y="1042.5" />
              <mxPoint x="588.5" y="1062.5" />
              <mxPoint x="598.5" y="1022.5" />
              <mxPoint x="562.5" y="1032.5" />
            </Array>
          </mxGeometry>
        </mxCell>
        <mxCell id="g8QcqB4jp_ApOANaONlV-76" style="edgeStyle=elbowEdgeStyle;rounded=0;orthogonalLoop=1;jettySize=auto;html=1;exitX=0.25;exitY=1;exitDx=0;exitDy=0;entryX=0;entryY=0.5;entryDx=0;entryDy=0;strokeWidth=2;endArrow=none;endFill=0;" parent="1" source="rvkrXnqIDvXesxYlfl5B-98" target="rvkrXnqIDvXesxYlfl5B-100" edge="1">
          <mxGeometry relative="1" as="geometry">
            <mxPoint x="912.5" y="880" as="sourcePoint" />
            <mxPoint x="940" y="919" as="targetPoint" />
            <Array as="points">
              <mxPoint x="903" y="949" />
              <mxPoint x="893.5" y="979" />
              <mxPoint x="821" y="959" />
              <mxPoint x="841" y="929" />
              <mxPoint x="818.5" y="993" />
              <mxPoint x="746" y="1023" />
              <mxPoint x="701" y="883" />
              <mxPoint x="673.5" y="978" />
              <mxPoint x="636" y="1002.5" />
              <mxPoint x="578" y="1052.5" />
              <mxPoint x="598.5" y="1072.5" />
              <mxPoint x="608.5" y="1032.5" />
              <mxPoint x="572.5" y="1042.5" />
            </Array>
          </mxGeometry>
        </mxCell>
        <mxCell id="g8QcqB4jp_ApOANaONlV-77" value="2.4.3&#xa;Mobile" style="fillColor=#b1ddf0;fontStyle=1;fontFamily=Tahoma;fontSize=11;rounded=1;" parent="1" vertex="1">
          <mxGeometry x="550" y="1199" width="130" height="60" as="geometry" />
        </mxCell>
        <mxCell id="g8QcqB4jp_ApOANaONlV-78" style="edgeStyle=elbowEdgeStyle;rounded=0;orthogonalLoop=1;jettySize=auto;html=1;entryX=0;entryY=0.5;entryDx=0;entryDy=0;strokeWidth=2;endArrow=none;endFill=0;exitX=0.25;exitY=1;exitDx=0;exitDy=0;" parent="1" source="rvkrXnqIDvXesxYlfl5B-86" target="rvkrXnqIDvXesxYlfl5B-101" edge="1">
          <mxGeometry relative="1" as="geometry">
            <mxPoint x="770" y="870" as="sourcePoint" />
            <mxPoint x="880" y="849.9999999999998" as="targetPoint" />
            <Array as="points">
              <mxPoint x="850" y="940" />
              <mxPoint x="860" y="830" />
              <mxPoint x="815" y="1350" />
              <mxPoint x="825" y="910" />
              <mxPoint x="835" y="510" />
              <mxPoint x="845" y="400" />
              <mxPoint x="830.5" y="367.25" />
              <mxPoint x="712.5" y="427.25" />
              <mxPoint x="782.5" y="487.25" />
              <mxPoint x="772.5" y="517.25" />
              <mxPoint x="773" y="559.75" />
              <mxPoint x="728" y="419.75" />
              <mxPoint x="700.5" y="514.75" />
              <mxPoint x="663" y="539.25" />
              <mxPoint x="605" y="589.25" />
              <mxPoint x="625.5" y="609.25" />
              <mxPoint x="635.5" y="569.25" />
              <mxPoint x="599.5" y="579.25" />
            </Array>
          </mxGeometry>
        </mxCell>
        <mxCell id="b7Dsw2wApSUTMHjrhd2Z-65" value="Obsługa zespołów&#xa;uczniów - klas" style="fillColor=#b1ddf0;fontStyle=1;fontFamily=Tahoma;fontSize=11;rounded=1;" vertex="1" parent="1">
          <mxGeometry x="980" y="1300" width="130" height="60" as="geometry" />
        </mxCell>
        <mxCell id="b7Dsw2wApSUTMHjrhd2Z-66" value="Routing" style="fillColor=#b1ddf0;fontStyle=1;fontFamily=Tahoma;fontSize=11;rounded=1;" vertex="1" parent="1">
          <mxGeometry x="923" y="2782" width="130" height="60" as="geometry" />
        </mxCell>
        <mxCell id="b7Dsw2wApSUTMHjrhd2Z-67" style="edgeStyle=elbowEdgeStyle;rounded=0;orthogonalLoop=1;jettySize=auto;html=1;exitX=0.25;exitY=1;exitDx=0;exitDy=0;entryX=0;entryY=0.5;entryDx=0;entryDy=0;strokeWidth=2;endArrow=none;endFill=0;" edge="1" parent="1" source="rvkrXnqIDvXesxYlfl5B-102" target="rvkrXnqIDvXesxYlfl5B-103">
          <mxGeometry relative="1" as="geometry">
            <mxPoint x="949.5" y="1094.4999999999998" as="sourcePoint" />
            <mxPoint x="970" y="1203.5" as="targetPoint" />
            <Array as="points">
              <mxPoint x="956" y="1110" />
              <mxPoint x="950" y="1173.5" />
              <mxPoint x="940.5" y="1203.5" />
              <mxPoint x="868" y="1183.5" />
              <mxPoint x="888" y="1153.5" />
              <mxPoint x="865.5" y="1217.5" />
              <mxPoint x="793" y="1247.5" />
              <mxPoint x="748" y="1107.5" />
              <mxPoint x="720.5" y="1202.5" />
              <mxPoint x="683" y="1227" />
              <mxPoint x="625" y="1277" />
              <mxPoint x="645.5" y="1297" />
              <mxPoint x="655.5" y="1257" />
              <mxPoint x="619.5" y="1267" />
            </Array>
          </mxGeometry>
        </mxCell>
        <mxCell id="b7Dsw2wApSUTMHjrhd2Z-68" value="Import&#xa;danych" style="fillColor=#b1ddf0;fontStyle=1;fontFamily=Tahoma;fontSize=11;rounded=1;" vertex="1" parent="1">
          <mxGeometry x="923" y="1380" width="130" height="60" as="geometry" />
        </mxCell>
        <mxCell id="b7Dsw2wApSUTMHjrhd2Z-69" value="Import&#xa;masowy" style="fillColor=#b1ddf0;fontStyle=1;fontFamily=Tahoma;fontSize=11;rounded=1;" vertex="1" parent="1">
          <mxGeometry x="980" y="1450" width="130" height="60" as="geometry" />
        </mxCell>
        <mxCell id="b7Dsw2wApSUTMHjrhd2Z-70" value="Import&#xa;jednostkowy" style="fillColor=#b1ddf0;fontStyle=1;fontFamily=Tahoma;fontSize=11;rounded=1;" vertex="1" parent="1">
          <mxGeometry x="980" y="1520" width="130" height="60" as="geometry" />
        </mxCell>
        <mxCell id="b7Dsw2wApSUTMHjrhd2Z-71" style="edgeStyle=elbowEdgeStyle;rounded=0;orthogonalLoop=1;jettySize=auto;html=1;exitX=0.25;exitY=1;exitDx=0;exitDy=0;entryX=0;entryY=0.5;entryDx=0;entryDy=0;strokeWidth=2;endArrow=none;endFill=0;" edge="1" parent="1" source="b7Dsw2wApSUTMHjrhd2Z-68" target="b7Dsw2wApSUTMHjrhd2Z-70">
          <mxGeometry relative="1" as="geometry">
            <mxPoint x="940" y="1439.9999999999998" as="sourcePoint" />
            <mxPoint x="960.5" y="1549" as="targetPoint" />
            <Array as="points">
              <mxPoint x="956" y="1530" />
              <mxPoint x="940.5" y="1519" />
              <mxPoint x="931" y="1549" />
              <mxPoint x="858.5" y="1529" />
              <mxPoint x="878.5" y="1499" />
              <mxPoint x="856" y="1563" />
              <mxPoint x="783.5" y="1593" />
              <mxPoint x="738.5" y="1453" />
              <mxPoint x="711" y="1548" />
              <mxPoint x="673.5" y="1572.5" />
              <mxPoint x="615.5" y="1622.5" />
              <mxPoint x="636" y="1642.5" />
              <mxPoint x="646" y="1602.5" />
              <mxPoint x="610" y="1612.5" />
            </Array>
          </mxGeometry>
        </mxCell>
        <mxCell id="b7Dsw2wApSUTMHjrhd2Z-72" value="Zarządzanie&#xa;uczniami" style="fillColor=#b1ddf0;fontStyle=1;fontFamily=Tahoma;fontSize=11;rounded=1;" vertex="1" parent="1">
          <mxGeometry x="923" y="1600" width="130" height="60" as="geometry" />
        </mxCell>
        <mxCell id="b7Dsw2wApSUTMHjrhd2Z-74" value="Faza powtórki" style="fillColor=#b1ddf0;fontStyle=1;fontFamily=Tahoma;fontSize=11;rounded=1;" vertex="1" parent="1">
          <mxGeometry x="923" y="2540" width="130" height="60" as="geometry" />
        </mxCell>
        <mxCell id="b7Dsw2wApSUTMHjrhd2Z-75" value="Opracowanie&#xa;algorytmów&#xa;systemu" style="fillColor=#b1ddf0;fontStyle=1;fontFamily=Tahoma;fontSize=11;rounded=1;" vertex="1" parent="1">
          <mxGeometry x="923" y="2030" width="130" height="60" as="geometry" />
        </mxCell>
        <mxCell id="b7Dsw2wApSUTMHjrhd2Z-76" value="Faza nauki" style="fillColor=#b1ddf0;fontStyle=1;fontFamily=Tahoma;fontSize=11;rounded=1;" vertex="1" parent="1">
          <mxGeometry x="923" y="2250" width="130" height="60" as="geometry" />
        </mxCell>
        <mxCell id="b7Dsw2wApSUTMHjrhd2Z-78" value="Statystyki" style="fillColor=#b1ddf0;fontStyle=1;fontFamily=Tahoma;fontSize=11;rounded=1;" vertex="1" parent="1">
          <mxGeometry x="923" y="2621" width="130" height="60" as="geometry" />
        </mxCell>
        <mxCell id="b7Dsw2wApSUTMHjrhd2Z-81" value="Zarządzanie&#xa;klasą" style="fillColor=#b1ddf0;fontStyle=1;fontFamily=Tahoma;fontSize=11;rounded=1;" vertex="1" parent="1">
          <mxGeometry x="980" y="1670" width="130" height="60" as="geometry" />
        </mxCell>
        <mxCell id="b7Dsw2wApSUTMHjrhd2Z-82" value="Przydzielanie&#xa;zestawów&#xa;lekcyjnych" style="fillColor=#b1ddf0;fontStyle=1;fontFamily=Tahoma;fontSize=11;rounded=1;" vertex="1" parent="1">
          <mxGeometry x="1040" y="1740" width="130" height="60" as="geometry" />
        </mxCell>
        <mxCell id="b7Dsw2wApSUTMHjrhd2Z-83" value="Kontrola&#xa;postępów" style="fillColor=#b1ddf0;fontStyle=1;fontFamily=Tahoma;fontSize=11;rounded=1;" vertex="1" parent="1">
          <mxGeometry x="1040" y="1810" width="130" height="60" as="geometry" />
        </mxCell>
        <mxCell id="b7Dsw2wApSUTMHjrhd2Z-84" value="Przeprowadzanie&#xa;testów&#xa;sprawdzających" style="fillColor=#b1ddf0;fontStyle=1;fontFamily=Tahoma;fontSize=11;rounded=1;" vertex="1" parent="1">
          <mxGeometry x="1040" y="1880" width="130" height="60" as="geometry" />
        </mxCell>
        <mxCell id="b7Dsw2wApSUTMHjrhd2Z-85" style="edgeStyle=elbowEdgeStyle;rounded=0;orthogonalLoop=1;jettySize=auto;html=1;exitX=0.25;exitY=1;exitDx=0;exitDy=0;entryX=0;entryY=0.5;entryDx=0;entryDy=0;strokeWidth=2;endArrow=none;endFill=0;" edge="1" parent="1" source="b7Dsw2wApSUTMHjrhd2Z-68" target="b7Dsw2wApSUTMHjrhd2Z-69">
          <mxGeometry relative="1" as="geometry">
            <mxPoint x="965.5" y="1450" as="sourcePoint" />
            <mxPoint x="990" y="1560" as="targetPoint" />
            <Array as="points">
              <mxPoint x="956" y="1460" />
              <mxPoint x="950.5" y="1529" />
              <mxPoint x="941" y="1559" />
              <mxPoint x="868.5" y="1539" />
              <mxPoint x="888.5" y="1509" />
              <mxPoint x="866" y="1573" />
              <mxPoint x="793.5" y="1603" />
              <mxPoint x="748.5" y="1463" />
              <mxPoint x="721" y="1558" />
              <mxPoint x="683.5" y="1582.5" />
              <mxPoint x="625.5" y="1632.5" />
              <mxPoint x="646" y="1652.5" />
              <mxPoint x="656" y="1612.5" />
              <mxPoint x="620" y="1622.5" />
            </Array>
          </mxGeometry>
        </mxCell>
        <mxCell id="b7Dsw2wApSUTMHjrhd2Z-86" style="edgeStyle=elbowEdgeStyle;rounded=0;orthogonalLoop=1;jettySize=auto;html=1;exitX=0.25;exitY=1;exitDx=0;exitDy=0;entryX=0;entryY=0.5;entryDx=0;entryDy=0;strokeWidth=2;endArrow=none;endFill=0;" edge="1" parent="1" source="rvkrXnqIDvXesxYlfl5B-102" target="rvkrXnqIDvXesxYlfl5B-104">
          <mxGeometry relative="1" as="geometry">
            <mxPoint x="959.5" y="1104.4999999999998" as="sourcePoint" />
            <mxPoint x="980" y="1213.5" as="targetPoint" />
            <Array as="points">
              <mxPoint x="956" y="1150" />
              <mxPoint x="930" y="1180" />
              <mxPoint x="960" y="1183.5" />
              <mxPoint x="950.5" y="1213.5" />
              <mxPoint x="878" y="1193.5" />
              <mxPoint x="898" y="1163.5" />
              <mxPoint x="875.5" y="1227.5" />
              <mxPoint x="803" y="1257.5" />
              <mxPoint x="758" y="1117.5" />
              <mxPoint x="730.5" y="1212.5" />
              <mxPoint x="693" y="1237" />
              <mxPoint x="635" y="1287" />
              <mxPoint x="655.5" y="1307" />
              <mxPoint x="665.5" y="1267" />
              <mxPoint x="629.5" y="1277" />
            </Array>
          </mxGeometry>
        </mxCell>
        <mxCell id="b7Dsw2wApSUTMHjrhd2Z-87" style="edgeStyle=elbowEdgeStyle;rounded=0;orthogonalLoop=1;jettySize=auto;html=1;exitX=0.25;exitY=1;exitDx=0;exitDy=0;strokeWidth=2;endArrow=none;endFill=0;entryX=0;entryY=0.5;entryDx=0;entryDy=0;" edge="1" parent="1" source="rvkrXnqIDvXesxYlfl5B-102" target="rvkrXnqIDvXesxYlfl5B-105">
          <mxGeometry relative="1" as="geometry">
            <mxPoint x="969.5" y="1114.4999999999998" as="sourcePoint" />
            <mxPoint x="956" y="1260" as="targetPoint" />
            <Array as="points">
              <mxPoint x="956" y="1150" />
              <mxPoint x="940" y="1160" />
              <mxPoint x="956" y="1250" />
              <mxPoint x="970" y="1193.5" />
              <mxPoint x="960.5" y="1223.5" />
              <mxPoint x="888" y="1203.5" />
              <mxPoint x="908" y="1173.5" />
              <mxPoint x="885.5" y="1237.5" />
              <mxPoint x="813" y="1267.5" />
              <mxPoint x="768" y="1127.5" />
              <mxPoint x="740.5" y="1222.5" />
              <mxPoint x="703" y="1247" />
              <mxPoint x="645" y="1297" />
              <mxPoint x="665.5" y="1317" />
              <mxPoint x="675.5" y="1277" />
              <mxPoint x="639.5" y="1287" />
            </Array>
          </mxGeometry>
        </mxCell>
        <mxCell id="b7Dsw2wApSUTMHjrhd2Z-88" style="edgeStyle=elbowEdgeStyle;rounded=0;orthogonalLoop=1;jettySize=auto;html=1;exitX=0.25;exitY=1;exitDx=0;exitDy=0;entryX=0;entryY=0.5;entryDx=0;entryDy=0;strokeWidth=2;endArrow=none;endFill=0;" edge="1" parent="1" source="rvkrXnqIDvXesxYlfl5B-102" target="b7Dsw2wApSUTMHjrhd2Z-65">
          <mxGeometry relative="1" as="geometry">
            <mxPoint x="979.5" y="1124.4999999999998" as="sourcePoint" />
            <mxPoint x="1000" y="1233.5" as="targetPoint" />
            <Array as="points">
              <mxPoint x="956" y="1170" />
              <mxPoint x="900" y="1170" />
              <mxPoint x="956" y="1170" />
              <mxPoint x="956" y="1290" />
              <mxPoint x="980" y="1203.5" />
              <mxPoint x="970.5" y="1233.5" />
              <mxPoint x="898" y="1213.5" />
              <mxPoint x="918" y="1183.5" />
              <mxPoint x="895.5" y="1247.5" />
              <mxPoint x="823" y="1277.5" />
              <mxPoint x="778" y="1137.5" />
              <mxPoint x="750.5" y="1232.5" />
              <mxPoint x="713" y="1257" />
              <mxPoint x="655" y="1307" />
              <mxPoint x="675.5" y="1327" />
              <mxPoint x="685.5" y="1287" />
              <mxPoint x="649.5" y="1297" />
            </Array>
          </mxGeometry>
        </mxCell>
        <mxCell id="b7Dsw2wApSUTMHjrhd2Z-89" style="edgeStyle=elbowEdgeStyle;rounded=0;orthogonalLoop=1;jettySize=auto;html=1;exitX=0.25;exitY=1;exitDx=0;exitDy=0;entryX=0;entryY=0.5;entryDx=0;entryDy=0;strokeWidth=2;endArrow=none;endFill=0;" edge="1" parent="1" source="rvkrXnqIDvXesxYlfl5B-98" target="rvkrXnqIDvXesxYlfl5B-102">
          <mxGeometry relative="1" as="geometry">
            <mxPoint x="877" y="949" as="sourcePoint" />
            <mxPoint x="897.5" y="1058" as="targetPoint" />
            <Array as="points">
              <mxPoint x="903" y="1010" />
              <mxPoint x="877.5" y="1028" />
              <mxPoint x="868" y="1058" />
              <mxPoint x="795.5" y="1038" />
              <mxPoint x="815.5" y="1008" />
              <mxPoint x="793" y="1072" />
              <mxPoint x="720.5" y="1102" />
              <mxPoint x="675.5" y="962" />
              <mxPoint x="648" y="1057" />
              <mxPoint x="610.5" y="1081.5" />
              <mxPoint x="552.5" y="1131.5" />
              <mxPoint x="573" y="1151.5" />
              <mxPoint x="583" y="1111.5" />
              <mxPoint x="547" y="1121.5" />
            </Array>
          </mxGeometry>
        </mxCell>
        <mxCell id="b7Dsw2wApSUTMHjrhd2Z-90" value="Kontakt&#xa;z uczniem" style="fillColor=#b1ddf0;fontStyle=1;fontFamily=Tahoma;fontSize=11;rounded=1;" vertex="1" parent="1">
          <mxGeometry x="1040" y="1950" width="130" height="60" as="geometry" />
        </mxCell>
        <mxCell id="b7Dsw2wApSUTMHjrhd2Z-91" style="edgeStyle=elbowEdgeStyle;rounded=0;orthogonalLoop=1;jettySize=auto;html=1;exitX=0.25;exitY=1;exitDx=0;exitDy=0;entryX=0;entryY=0.5;entryDx=0;entryDy=0;strokeWidth=2;endArrow=none;endFill=0;" edge="1" parent="1" source="rvkrXnqIDvXesxYlfl5B-98" target="b7Dsw2wApSUTMHjrhd2Z-68">
          <mxGeometry relative="1" as="geometry">
            <mxPoint x="912.5" y="880" as="sourcePoint" />
            <mxPoint x="933" y="1060" as="targetPoint" />
            <Array as="points">
              <mxPoint x="903" y="930" />
              <mxPoint x="913" y="1020" />
              <mxPoint x="887.5" y="1038" />
              <mxPoint x="878" y="1068" />
              <mxPoint x="805.5" y="1048" />
              <mxPoint x="825.5" y="1018" />
              <mxPoint x="803" y="1082" />
              <mxPoint x="730.5" y="1112" />
              <mxPoint x="685.5" y="972" />
              <mxPoint x="658" y="1067" />
              <mxPoint x="620.5" y="1091.5" />
              <mxPoint x="562.5" y="1141.5" />
              <mxPoint x="583" y="1161.5" />
              <mxPoint x="593" y="1121.5" />
              <mxPoint x="557" y="1131.5" />
            </Array>
          </mxGeometry>
        </mxCell>
        <mxCell id="b7Dsw2wApSUTMHjrhd2Z-92" style="edgeStyle=elbowEdgeStyle;rounded=0;orthogonalLoop=1;jettySize=auto;html=1;exitX=0.25;exitY=1;exitDx=0;exitDy=0;entryX=0;entryY=0.5;entryDx=0;entryDy=0;strokeWidth=2;endArrow=none;endFill=0;" edge="1" parent="1" source="rvkrXnqIDvXesxYlfl5B-98" target="b7Dsw2wApSUTMHjrhd2Z-72">
          <mxGeometry relative="1" as="geometry">
            <mxPoint x="912.5" y="880" as="sourcePoint" />
            <mxPoint x="933" y="1420" as="targetPoint" />
            <Array as="points">
              <mxPoint x="903" y="1520" />
              <mxPoint x="913" y="940" />
              <mxPoint x="923" y="1030" />
              <mxPoint x="897.5" y="1048" />
              <mxPoint x="888" y="1078" />
              <mxPoint x="815.5" y="1058" />
              <mxPoint x="835.5" y="1028" />
              <mxPoint x="813" y="1092" />
              <mxPoint x="740.5" y="1122" />
              <mxPoint x="695.5" y="982" />
              <mxPoint x="668" y="1077" />
              <mxPoint x="630.5" y="1101.5" />
              <mxPoint x="572.5" y="1151.5" />
              <mxPoint x="593" y="1171.5" />
              <mxPoint x="603" y="1131.5" />
              <mxPoint x="567" y="1141.5" />
            </Array>
          </mxGeometry>
        </mxCell>
        <mxCell id="b7Dsw2wApSUTMHjrhd2Z-93" style="edgeStyle=elbowEdgeStyle;rounded=0;orthogonalLoop=1;jettySize=auto;html=1;exitX=0.25;exitY=1;exitDx=0;exitDy=0;entryX=0;entryY=0.5;entryDx=0;entryDy=0;strokeWidth=2;endArrow=none;endFill=0;" edge="1" parent="1" source="rvkrXnqIDvXesxYlfl5B-98" target="b7Dsw2wApSUTMHjrhd2Z-75">
          <mxGeometry relative="1" as="geometry">
            <mxPoint x="912.5" y="880" as="sourcePoint" />
            <mxPoint x="933" y="1640" as="targetPoint" />
            <Array as="points">
              <mxPoint x="903" y="1820" />
              <mxPoint x="560" y="1810" />
              <mxPoint x="913" y="1530" />
              <mxPoint x="923" y="950" />
              <mxPoint x="933" y="1040" />
              <mxPoint x="907.5" y="1058" />
              <mxPoint x="898" y="1088" />
              <mxPoint x="825.5" y="1068" />
              <mxPoint x="845.5" y="1038" />
              <mxPoint x="823" y="1102" />
              <mxPoint x="750.5" y="1132" />
              <mxPoint x="705.5" y="992" />
              <mxPoint x="678" y="1087" />
              <mxPoint x="640.5" y="1111.5" />
              <mxPoint x="582.5" y="1161.5" />
              <mxPoint x="603" y="1181.5" />
              <mxPoint x="613" y="1141.5" />
              <mxPoint x="577" y="1151.5" />
            </Array>
          </mxGeometry>
        </mxCell>
        <mxCell id="b7Dsw2wApSUTMHjrhd2Z-94" value="Eksport danych" style="fillColor=#b1ddf0;fontStyle=1;fontFamily=Tahoma;fontSize=11;rounded=1;" vertex="1" parent="1">
          <mxGeometry x="923" y="2702" width="130" height="60" as="geometry" />
        </mxCell>
        <mxCell id="b7Dsw2wApSUTMHjrhd2Z-95" style="edgeStyle=elbowEdgeStyle;rounded=0;orthogonalLoop=1;jettySize=auto;html=1;exitX=0.25;exitY=1;exitDx=0;exitDy=0;entryX=0;entryY=0.5;entryDx=0;entryDy=0;strokeWidth=2;endArrow=none;endFill=0;" edge="1" parent="1" source="b7Dsw2wApSUTMHjrhd2Z-72" target="b7Dsw2wApSUTMHjrhd2Z-81">
          <mxGeometry relative="1" as="geometry">
            <mxPoint x="945.5" y="1670" as="sourcePoint" />
            <mxPoint x="970" y="1780" as="targetPoint" />
            <Array as="points">
              <mxPoint x="956" y="1680" />
              <mxPoint x="930" y="1690" />
              <mxPoint x="946" y="1760" />
              <mxPoint x="930.5" y="1749" />
              <mxPoint x="921" y="1779" />
              <mxPoint x="848.5" y="1759" />
              <mxPoint x="868.5" y="1729" />
              <mxPoint x="846" y="1793" />
              <mxPoint x="773.5" y="1823" />
              <mxPoint x="728.5" y="1683" />
              <mxPoint x="701" y="1778" />
              <mxPoint x="663.5" y="1802.5" />
              <mxPoint x="605.5" y="1852.5" />
              <mxPoint x="626" y="1872.5" />
              <mxPoint x="636" y="1832.5" />
              <mxPoint x="600" y="1842.5" />
            </Array>
          </mxGeometry>
        </mxCell>
        <mxCell id="b7Dsw2wApSUTMHjrhd2Z-96" style="edgeStyle=elbowEdgeStyle;rounded=0;orthogonalLoop=1;jettySize=auto;html=1;exitX=0.25;exitY=1;exitDx=0;exitDy=0;entryX=0;entryY=0.5;entryDx=0;entryDy=0;strokeWidth=2;endArrow=none;endFill=0;" edge="1" parent="1" source="b7Dsw2wApSUTMHjrhd2Z-81" target="b7Dsw2wApSUTMHjrhd2Z-90">
          <mxGeometry relative="1" as="geometry">
            <mxPoint x="1000" y="1740" as="sourcePoint" />
            <mxPoint x="1024.5" y="1780" as="targetPoint" />
            <Array as="points">
              <mxPoint x="1013" y="1900" />
              <mxPoint x="960" y="1940" />
              <mxPoint x="1013" y="1930" />
              <mxPoint x="1013" y="1860" />
              <mxPoint x="1000.5" y="1760" />
              <mxPoint x="974.5" y="1770" />
              <mxPoint x="990.5" y="1840" />
              <mxPoint x="975" y="1829" />
              <mxPoint x="965.5" y="1859" />
              <mxPoint x="893" y="1839" />
              <mxPoint x="913" y="1809" />
              <mxPoint x="890.5" y="1873" />
              <mxPoint x="818" y="1903" />
              <mxPoint x="773" y="1763" />
              <mxPoint x="745.5" y="1858" />
              <mxPoint x="708" y="1882.5" />
              <mxPoint x="650" y="1932.5" />
              <mxPoint x="670.5" y="1952.5" />
              <mxPoint x="680.5" y="1912.5" />
              <mxPoint x="644.5" y="1922.5" />
            </Array>
          </mxGeometry>
        </mxCell>
        <mxCell id="b7Dsw2wApSUTMHjrhd2Z-97" style="edgeStyle=elbowEdgeStyle;rounded=0;orthogonalLoop=1;jettySize=auto;html=1;exitX=0.25;exitY=1;exitDx=0;exitDy=0;entryX=0;entryY=0.5;entryDx=0;entryDy=0;strokeWidth=2;endArrow=none;endFill=0;" edge="1" parent="1" source="b7Dsw2wApSUTMHjrhd2Z-81" target="b7Dsw2wApSUTMHjrhd2Z-84">
          <mxGeometry relative="1" as="geometry">
            <mxPoint x="1022.5" y="1740" as="sourcePoint" />
            <mxPoint x="1050" y="1990" as="targetPoint" />
            <Array as="points">
              <mxPoint x="1013" y="1880" />
              <mxPoint x="1030" y="1860" />
              <mxPoint x="1011" y="1880" />
              <mxPoint x="1010.5" y="1770" />
              <mxPoint x="984.5" y="1780" />
              <mxPoint x="1000.5" y="1850" />
              <mxPoint x="985" y="1839" />
              <mxPoint x="975.5" y="1869" />
              <mxPoint x="903" y="1849" />
              <mxPoint x="923" y="1819" />
              <mxPoint x="900.5" y="1883" />
              <mxPoint x="828" y="1913" />
              <mxPoint x="783" y="1773" />
              <mxPoint x="755.5" y="1868" />
              <mxPoint x="718" y="1892.5" />
              <mxPoint x="660" y="1942.5" />
              <mxPoint x="680.5" y="1962.5" />
              <mxPoint x="690.5" y="1922.5" />
              <mxPoint x="654.5" y="1932.5" />
            </Array>
          </mxGeometry>
        </mxCell>
        <mxCell id="b7Dsw2wApSUTMHjrhd2Z-98" style="edgeStyle=elbowEdgeStyle;rounded=0;orthogonalLoop=1;jettySize=auto;html=1;exitX=0.25;exitY=1;exitDx=0;exitDy=0;entryX=0;entryY=0.5;entryDx=0;entryDy=0;strokeWidth=2;endArrow=none;endFill=0;" edge="1" parent="1" source="b7Dsw2wApSUTMHjrhd2Z-81" target="b7Dsw2wApSUTMHjrhd2Z-83">
          <mxGeometry relative="1" as="geometry">
            <mxPoint x="1022.5" y="1740" as="sourcePoint" />
            <mxPoint x="1050" y="1920" as="targetPoint" />
            <Array as="points">
              <mxPoint x="1013" y="1800" />
              <mxPoint x="970" y="1880" />
              <mxPoint x="1040" y="1870" />
              <mxPoint x="1021" y="1890" />
              <mxPoint x="1020.5" y="1780" />
              <mxPoint x="994.5" y="1790" />
              <mxPoint x="1010.5" y="1860" />
              <mxPoint x="995" y="1849" />
              <mxPoint x="985.5" y="1879" />
              <mxPoint x="913" y="1859" />
              <mxPoint x="933" y="1829" />
              <mxPoint x="910.5" y="1893" />
              <mxPoint x="838" y="1923" />
              <mxPoint x="793" y="1783" />
              <mxPoint x="765.5" y="1878" />
              <mxPoint x="728" y="1902.5" />
              <mxPoint x="670" y="1952.5" />
              <mxPoint x="690.5" y="1972.5" />
              <mxPoint x="700.5" y="1932.5" />
              <mxPoint x="664.5" y="1942.5" />
            </Array>
          </mxGeometry>
        </mxCell>
        <mxCell id="b7Dsw2wApSUTMHjrhd2Z-99" style="edgeStyle=elbowEdgeStyle;rounded=0;orthogonalLoop=1;jettySize=auto;html=1;exitX=0.25;exitY=1;exitDx=0;exitDy=0;entryX=0;entryY=0.5;entryDx=0;entryDy=0;strokeWidth=2;endArrow=none;endFill=0;" edge="1" parent="1" source="b7Dsw2wApSUTMHjrhd2Z-81" target="b7Dsw2wApSUTMHjrhd2Z-82">
          <mxGeometry relative="1" as="geometry">
            <mxPoint x="1022.5" y="1740" as="sourcePoint" />
            <mxPoint x="1050" y="1850" as="targetPoint" />
            <Array as="points">
              <mxPoint x="1013" y="1780" />
              <mxPoint x="1023" y="1810" />
              <mxPoint x="980" y="1890" />
              <mxPoint x="1050" y="1880" />
              <mxPoint x="1031" y="1900" />
              <mxPoint x="1030.5" y="1790" />
              <mxPoint x="1004.5" y="1800" />
              <mxPoint x="1020.5" y="1870" />
              <mxPoint x="1005" y="1859" />
              <mxPoint x="995.5" y="1889" />
              <mxPoint x="923" y="1869" />
              <mxPoint x="943" y="1839" />
              <mxPoint x="920.5" y="1903" />
              <mxPoint x="848" y="1933" />
              <mxPoint x="803" y="1793" />
              <mxPoint x="775.5" y="1888" />
              <mxPoint x="738" y="1912.5" />
              <mxPoint x="680" y="1962.5" />
              <mxPoint x="700.5" y="1982.5" />
              <mxPoint x="710.5" y="1942.5" />
              <mxPoint x="674.5" y="1952.5" />
            </Array>
          </mxGeometry>
        </mxCell>
        <mxCell id="b7Dsw2wApSUTMHjrhd2Z-100" style="edgeStyle=elbowEdgeStyle;rounded=0;orthogonalLoop=1;jettySize=auto;html=1;exitX=0.25;exitY=1;exitDx=0;exitDy=0;strokeWidth=2;endArrow=none;endFill=0;entryX=0;entryY=0.5;entryDx=0;entryDy=0;" edge="1" parent="1" source="rvkrXnqIDvXesxYlfl5B-98" target="b7Dsw2wApSUTMHjrhd2Z-94">
          <mxGeometry relative="1" as="geometry">
            <mxPoint x="912.5" y="880" as="sourcePoint" />
            <mxPoint x="890" y="2130" as="targetPoint" />
            <Array as="points">
              <mxPoint x="903" y="2050" />
              <mxPoint x="913" y="1830" />
              <mxPoint x="570" y="1820" />
              <mxPoint x="923" y="1540" />
              <mxPoint x="933" y="960" />
              <mxPoint x="943" y="1050" />
              <mxPoint x="917.5" y="1068" />
              <mxPoint x="908" y="1098" />
              <mxPoint x="835.5" y="1078" />
              <mxPoint x="855.5" y="1048" />
              <mxPoint x="833" y="1112" />
              <mxPoint x="760.5" y="1142" />
              <mxPoint x="715.5" y="1002" />
              <mxPoint x="688" y="1097" />
              <mxPoint x="650.5" y="1121.5" />
              <mxPoint x="592.5" y="1171.5" />
              <mxPoint x="613" y="1191.5" />
              <mxPoint x="623" y="1151.5" />
              <mxPoint x="587" y="1161.5" />
            </Array>
          </mxGeometry>
        </mxCell>
        <mxCell id="b7Dsw2wApSUTMHjrhd2Z-101" style="edgeStyle=elbowEdgeStyle;rounded=0;orthogonalLoop=1;jettySize=auto;html=1;exitX=0.25;exitY=1;exitDx=0;exitDy=0;strokeWidth=2;endArrow=none;endFill=0;entryX=0;entryY=0.5;entryDx=0;entryDy=0;" edge="1" parent="1" source="rvkrXnqIDvXesxYlfl5B-98" target="b7Dsw2wApSUTMHjrhd2Z-66">
          <mxGeometry relative="1" as="geometry">
            <mxPoint x="912.5" y="880" as="sourcePoint" />
            <mxPoint x="933" y="2290" as="targetPoint" />
            <Array as="points">
              <mxPoint x="903" y="2330" />
              <mxPoint x="913" y="2060" />
              <mxPoint x="923" y="1840" />
              <mxPoint x="580" y="1830" />
              <mxPoint x="933" y="1550" />
              <mxPoint x="943" y="970" />
              <mxPoint x="953" y="1060" />
              <mxPoint x="927.5" y="1078" />
              <mxPoint x="918" y="1108" />
              <mxPoint x="845.5" y="1088" />
              <mxPoint x="865.5" y="1058" />
              <mxPoint x="843" y="1122" />
              <mxPoint x="770.5" y="1152" />
              <mxPoint x="725.5" y="1012" />
              <mxPoint x="698" y="1107" />
              <mxPoint x="660.5" y="1131.5" />
              <mxPoint x="602.5" y="1181.5" />
              <mxPoint x="623" y="1201.5" />
              <mxPoint x="633" y="1161.5" />
              <mxPoint x="597" y="1171.5" />
            </Array>
          </mxGeometry>
        </mxCell>
        <mxCell id="b7Dsw2wApSUTMHjrhd2Z-102" value="Szablony&#xa;widolów" style="fillColor=#b1ddf0;fontStyle=1;fontFamily=Tahoma;fontSize=11;rounded=1;" vertex="1" parent="1">
          <mxGeometry x="923" y="2930" width="130" height="60" as="geometry" />
        </mxCell>
        <mxCell id="b7Dsw2wApSUTMHjrhd2Z-103" style="edgeStyle=elbowEdgeStyle;rounded=0;orthogonalLoop=1;jettySize=auto;html=1;exitX=0.25;exitY=1;exitDx=0;exitDy=0;strokeWidth=2;endArrow=none;endFill=0;entryX=0;entryY=0.5;entryDx=0;entryDy=0;" edge="1" parent="1" source="rvkrXnqIDvXesxYlfl5B-98" target="b7Dsw2wApSUTMHjrhd2Z-78">
          <mxGeometry relative="1" as="geometry">
            <mxPoint x="912.5" y="880" as="sourcePoint" />
            <mxPoint x="933" y="2701" as="targetPoint" />
            <Array as="points">
              <mxPoint x="903" y="2490" />
              <mxPoint x="913" y="2340" />
              <mxPoint x="923" y="2070" />
              <mxPoint x="933" y="1850" />
              <mxPoint x="590" y="1840" />
              <mxPoint x="943" y="1560" />
              <mxPoint x="953" y="980" />
              <mxPoint x="963" y="1070" />
              <mxPoint x="937.5" y="1088" />
              <mxPoint x="928" y="1118" />
              <mxPoint x="855.5" y="1098" />
              <mxPoint x="875.5" y="1068" />
              <mxPoint x="853" y="1132" />
              <mxPoint x="780.5" y="1162" />
              <mxPoint x="735.5" y="1022" />
              <mxPoint x="708" y="1117" />
              <mxPoint x="670.5" y="1141.5" />
              <mxPoint x="612.5" y="1191.5" />
              <mxPoint x="633" y="1211.5" />
              <mxPoint x="643" y="1171.5" />
              <mxPoint x="607" y="1181.5" />
            </Array>
          </mxGeometry>
        </mxCell>
        <mxCell id="b7Dsw2wApSUTMHjrhd2Z-104" style="edgeStyle=elbowEdgeStyle;rounded=0;orthogonalLoop=1;jettySize=auto;html=1;exitX=0.25;exitY=1;exitDx=0;exitDy=0;strokeWidth=2;endArrow=none;endFill=0;entryX=0;entryY=0.5;entryDx=0;entryDy=0;" edge="1" parent="1" source="rvkrXnqIDvXesxYlfl5B-98" target="b7Dsw2wApSUTMHjrhd2Z-76">
          <mxGeometry relative="1" as="geometry">
            <mxPoint x="912.5" y="880" as="sourcePoint" />
            <mxPoint x="933" y="2540" as="targetPoint" />
            <Array as="points">
              <mxPoint x="903" y="2170" />
              <mxPoint x="760" y="2400" />
              <mxPoint x="870" y="2440" />
              <mxPoint x="913" y="2500" />
              <mxPoint x="923" y="2350" />
              <mxPoint x="933" y="2080" />
              <mxPoint x="943" y="1860" />
              <mxPoint x="600" y="1850" />
              <mxPoint x="953" y="1570" />
              <mxPoint x="963" y="990" />
              <mxPoint x="973" y="1080" />
              <mxPoint x="947.5" y="1098" />
              <mxPoint x="938" y="1128" />
              <mxPoint x="865.5" y="1108" />
              <mxPoint x="885.5" y="1078" />
              <mxPoint x="863" y="1142" />
              <mxPoint x="790.5" y="1172" />
              <mxPoint x="745.5" y="1032" />
              <mxPoint x="718" y="1127" />
              <mxPoint x="680.5" y="1151.5" />
              <mxPoint x="622.5" y="1201.5" />
              <mxPoint x="643" y="1221.5" />
              <mxPoint x="653" y="1181.5" />
              <mxPoint x="617" y="1191.5" />
            </Array>
          </mxGeometry>
        </mxCell>
        <mxCell id="b7Dsw2wApSUTMHjrhd2Z-105" style="edgeStyle=elbowEdgeStyle;rounded=0;orthogonalLoop=1;jettySize=auto;html=1;exitX=0.25;exitY=1;exitDx=0;exitDy=0;entryX=0;entryY=0.5;entryDx=0;entryDy=0;strokeWidth=2;endArrow=none;endFill=0;" edge="1" parent="1" source="rvkrXnqIDvXesxYlfl5B-98" target="b7Dsw2wApSUTMHjrhd2Z-74">
          <mxGeometry relative="1" as="geometry">
            <mxPoint x="912.5" y="880" as="sourcePoint" />
            <mxPoint x="933" y="2070" as="targetPoint" />
            <Array as="points">
              <mxPoint x="903" y="2090" />
              <mxPoint x="913" y="1830" />
              <mxPoint x="570" y="1820" />
              <mxPoint x="923" y="1540" />
              <mxPoint x="933" y="960" />
              <mxPoint x="943" y="1050" />
              <mxPoint x="917.5" y="1068" />
              <mxPoint x="908" y="1098" />
              <mxPoint x="835.5" y="1078" />
              <mxPoint x="855.5" y="1048" />
              <mxPoint x="833" y="1112" />
              <mxPoint x="760.5" y="1142" />
              <mxPoint x="715.5" y="1002" />
              <mxPoint x="688" y="1097" />
              <mxPoint x="650.5" y="1121.5" />
              <mxPoint x="592.5" y="1171.5" />
              <mxPoint x="613" y="1191.5" />
              <mxPoint x="623" y="1151.5" />
              <mxPoint x="587" y="1161.5" />
            </Array>
          </mxGeometry>
        </mxCell>
        <mxCell id="b7Dsw2wApSUTMHjrhd2Z-107" style="edgeStyle=elbowEdgeStyle;rounded=0;orthogonalLoop=1;jettySize=auto;html=1;exitX=0.25;exitY=1;exitDx=0;exitDy=0;entryX=0;entryY=0.5;entryDx=0;entryDy=0;strokeWidth=2;endArrow=none;endFill=0;" edge="1" parent="1" source="rvkrXnqIDvXesxYlfl5B-101" target="b7Dsw2wApSUTMHjrhd2Z-102">
          <mxGeometry relative="1" as="geometry">
            <mxPoint x="672.5" y="2890" as="sourcePoint" />
            <mxPoint x="690" y="3070" as="targetPoint" />
            <Array as="points">
              <mxPoint x="893" y="2940" />
              <mxPoint x="577.5" y="2960" />
              <mxPoint x="541.5" y="2970" />
            </Array>
          </mxGeometry>
        </mxCell>
        <mxCell id="b7Dsw2wApSUTMHjrhd2Z-108" style="edgeStyle=elbowEdgeStyle;rounded=0;orthogonalLoop=1;jettySize=auto;html=1;exitX=0.25;exitY=1;exitDx=0;exitDy=0;entryX=0;entryY=0.5;entryDx=0;entryDy=0;strokeWidth=2;endArrow=none;endFill=0;" edge="1" parent="1" source="rvkrXnqIDvXesxYlfl5B-93" target="rvkrXnqIDvXesxYlfl5B-95">
          <mxGeometry relative="1" as="geometry">
            <mxPoint x="809" y="3120" as="sourcePoint" />
            <mxPoint x="839.5" y="3160" as="targetPoint" />
            <Array as="points">
              <mxPoint x="850" y="3100" />
              <mxPoint x="494" y="3160" />
              <mxPoint x="458" y="3170" />
            </Array>
          </mxGeometry>
        </mxCell>
        <mxCell id="b7Dsw2wApSUTMHjrhd2Z-109" style="edgeStyle=elbowEdgeStyle;rounded=0;orthogonalLoop=1;jettySize=auto;html=1;exitX=0.25;exitY=1;exitDx=0;exitDy=0;entryX=0;entryY=0.5;entryDx=0;entryDy=0;strokeWidth=2;endArrow=none;endFill=0;" edge="1" parent="1" source="rvkrXnqIDvXesxYlfl5B-93" target="rvkrXnqIDvXesxYlfl5B-96">
          <mxGeometry relative="1" as="geometry">
            <mxPoint x="859.5" y="3080" as="sourcePoint" />
            <mxPoint x="880" y="3120" as="targetPoint" />
            <Array as="points">
              <mxPoint x="850" y="3150" />
              <mxPoint x="860" y="3110" />
              <mxPoint x="504" y="3170" />
              <mxPoint x="468" y="3180" />
            </Array>
          </mxGeometry>
        </mxCell>
        <mxCell id="b7Dsw2wApSUTMHjrhd2Z-110" style="edgeStyle=elbowEdgeStyle;rounded=0;orthogonalLoop=1;jettySize=auto;html=1;exitX=0.25;exitY=1;exitDx=0;exitDy=0;entryX=0;entryY=0.5;entryDx=0;entryDy=0;strokeWidth=2;endArrow=none;endFill=0;" edge="1" parent="1" source="rvkrXnqIDvXesxYlfl5B-93" target="rvkrXnqIDvXesxYlfl5B-97">
          <mxGeometry relative="1" as="geometry">
            <mxPoint x="859.5" y="3080" as="sourcePoint" />
            <mxPoint x="880" y="3190" as="targetPoint" />
            <Array as="points">
              <mxPoint x="850" y="3210" />
              <mxPoint x="860" y="3160" />
              <mxPoint x="870" y="3120" />
              <mxPoint x="514" y="3180" />
              <mxPoint x="478" y="3190" />
            </Array>
          </mxGeometry>
        </mxCell>
        <mxCell id="b7Dsw2wApSUTMHjrhd2Z-111" value="Prezentacja&#xa;materiału" style="fillColor=#b1ddf0;fontStyle=1;fontFamily=Tahoma;fontSize=11;rounded=1;" vertex="1" parent="1">
          <mxGeometry x="980" y="2320" width="130" height="60" as="geometry" />
        </mxCell>
        <mxCell id="b7Dsw2wApSUTMHjrhd2Z-112" value="Proces&#xa;opanowania&#xa;pamięciowego" style="fillColor=#b1ddf0;fontStyle=1;fontFamily=Tahoma;fontSize=11;rounded=1;" vertex="1" parent="1">
          <mxGeometry x="980" y="2390" width="130" height="60" as="geometry" />
        </mxCell>
        <mxCell id="b7Dsw2wApSUTMHjrhd2Z-113" value="Proces&#xa;przeuczenia" style="fillColor=#b1ddf0;fontStyle=1;fontFamily=Tahoma;fontSize=11;rounded=1;" vertex="1" parent="1">
          <mxGeometry x="980" y="2460" width="130" height="60" as="geometry" />
        </mxCell>
        <mxCell id="b7Dsw2wApSUTMHjrhd2Z-114" style="edgeStyle=elbowEdgeStyle;rounded=0;orthogonalLoop=1;jettySize=auto;html=1;exitX=0.25;exitY=1;exitDx=0;exitDy=0;entryX=0;entryY=0.5;entryDx=0;entryDy=0;strokeWidth=2;endArrow=none;endFill=0;" edge="1" parent="1" source="b7Dsw2wApSUTMHjrhd2Z-76" target="b7Dsw2wApSUTMHjrhd2Z-111">
          <mxGeometry relative="1" as="geometry">
            <mxPoint x="947" y="2350" as="sourcePoint" />
            <mxPoint x="977.5" y="2390" as="targetPoint" />
            <Array as="points">
              <mxPoint x="956" y="2330" />
              <mxPoint x="596" y="2400" />
            </Array>
          </mxGeometry>
        </mxCell>
        <mxCell id="b7Dsw2wApSUTMHjrhd2Z-115" style="edgeStyle=elbowEdgeStyle;rounded=0;orthogonalLoop=1;jettySize=auto;html=1;exitX=0.25;exitY=1;exitDx=0;exitDy=0;entryX=0;entryY=0.5;entryDx=0;entryDy=0;strokeWidth=2;endArrow=none;endFill=0;" edge="1" parent="1" source="b7Dsw2wApSUTMHjrhd2Z-76" target="b7Dsw2wApSUTMHjrhd2Z-112">
          <mxGeometry relative="1" as="geometry">
            <mxPoint x="940" y="2370" as="sourcePoint" />
            <mxPoint x="964.5" y="2410" as="targetPoint" />
            <Array as="points">
              <mxPoint x="956" y="2370" />
              <mxPoint x="580.5" y="2460" />
            </Array>
          </mxGeometry>
        </mxCell>
        <mxCell id="b7Dsw2wApSUTMHjrhd2Z-116" style="edgeStyle=elbowEdgeStyle;rounded=0;orthogonalLoop=1;jettySize=auto;html=1;exitX=0.25;exitY=1;exitDx=0;exitDy=0;entryX=0;entryY=0.5;entryDx=0;entryDy=0;strokeWidth=2;endArrow=none;endFill=0;" edge="1" parent="1" source="b7Dsw2wApSUTMHjrhd2Z-76" target="b7Dsw2wApSUTMHjrhd2Z-113">
          <mxGeometry relative="1" as="geometry">
            <mxPoint x="965.5" y="2320" as="sourcePoint" />
            <mxPoint x="990" y="2430" as="targetPoint" />
            <Array as="points">
              <mxPoint x="956" y="2460" />
              <mxPoint x="950.5" y="2400" />
              <mxPoint x="590.5" y="2470" />
            </Array>
          </mxGeometry>
        </mxCell>
        <mxCell id="b7Dsw2wApSUTMHjrhd2Z-117" value="Algorytm&#xa;selekcji haseł&#xa;do nauki" style="fillColor=#b1ddf0;fontStyle=1;fontFamily=Tahoma;fontSize=11;rounded=1;" vertex="1" parent="1">
          <mxGeometry x="980" y="2170" width="130" height="60" as="geometry" />
        </mxCell>
        <mxCell id="b7Dsw2wApSUTMHjrhd2Z-118" value="Algorytm&#xa;wyznaczania&#xa;terminów powtórek" style="fillColor=#b1ddf0;fontStyle=1;fontFamily=Tahoma;fontSize=11;rounded=1;" vertex="1" parent="1">
          <mxGeometry x="980" y="2100" width="130" height="60" as="geometry" />
        </mxCell>
        <mxCell id="b7Dsw2wApSUTMHjrhd2Z-119" style="edgeStyle=elbowEdgeStyle;rounded=0;orthogonalLoop=1;jettySize=auto;html=1;entryX=0;entryY=0.5;entryDx=0;entryDy=0;strokeWidth=2;endArrow=none;endFill=0;exitX=0.25;exitY=1;exitDx=0;exitDy=0;" edge="1" parent="1" source="b7Dsw2wApSUTMHjrhd2Z-75" target="b7Dsw2wApSUTMHjrhd2Z-118">
          <mxGeometry relative="1" as="geometry">
            <mxPoint x="956" y="2170" as="sourcePoint" />
            <mxPoint x="974.5" y="2150" as="targetPoint" />
            <Array as="points">
              <mxPoint x="956" y="2100" />
            </Array>
          </mxGeometry>
        </mxCell>
        <mxCell id="b7Dsw2wApSUTMHjrhd2Z-120" style="edgeStyle=elbowEdgeStyle;rounded=0;orthogonalLoop=1;jettySize=auto;html=1;exitX=0.25;exitY=1;exitDx=0;exitDy=0;entryX=0;entryY=0.5;entryDx=0;entryDy=0;strokeWidth=2;endArrow=none;endFill=0;" edge="1" parent="1" source="b7Dsw2wApSUTMHjrhd2Z-75" target="b7Dsw2wApSUTMHjrhd2Z-117">
          <mxGeometry relative="1" as="geometry">
            <mxPoint x="945" y="2150" as="sourcePoint" />
            <mxPoint x="969.5" y="2190" as="targetPoint" />
            <Array as="points">
              <mxPoint x="956" y="2120" />
              <mxPoint x="956" y="2180" />
              <mxPoint x="940" y="2190" />
              <mxPoint x="580" y="2260" />
            </Array>
          </mxGeometry>
        </mxCell>
      </root>
    </mxGraphModel>
  </diagram>
</mxfile>
